<?xml version="1.0" encoding="UTF-8" standalone="no"?>
<svg
   version="1.0"
   width="1024px"
   height="1024px"
   viewBox="0 0 1024 1024"
   preserveAspectRatio="xMidYMid meet"
   id="svg28"
   sodipodi:docname="junkboyNewIcon.svg"
   inkscape:version="1.4.2 (ebf0e940d0, 2025-05-08)"
   inkscape:export-filename="junkboyNewIcon.png"
   inkscape:export-xdpi="96"
   inkscape:export-ydpi="96"
   xmlns:inkscape="http://www.inkscape.org/namespaces/inkscape"
   xmlns:sodipodi="http://sodipodi.sourceforge.net/DTD/sodipodi-0.dtd"
   xmlns="http://www.w3.org/2000/svg"
   xmlns:svg="http://www.w3.org/2000/svg">
  <defs
     id="defs28">
    <filter
       y="-0.020474636"
       height="1.0409493"
       inkscape:menu-tooltip="Darkens the edge with an inner blur and adds a flexible glow"
       inkscape:menu="Shadows and Glows"
       inkscape:label="Dark and Glow"
       style="color-interpolation-filters:sRGB;"
       id="filter56"
       x="-0.016167305"
       width="1.0323346">
      <feGaussianBlur
         stdDeviation="4.3052189"
         result="result6"
         id="feGaussianBlur55" />
      <feComposite
         result="result8"
         in="SourceGraphic"
         operator="atop"
         in2="result6"
         id="feComposite55" />
      <feComposite
         result="result9"
         operator="over"
         in2="SourceAlpha"
         in="result8"
         id="feComposite56" />
      <feColorMatrix
         values="1 0 0 0 0 0 1 0 0 0 0 0 1 0 0 0 0 0 1 0 "
         result="result10"
         id="feColorMatrix56" />
      <feBlend
         in="result10"
         mode="normal"
         in2="result6"
         id="feBlend56" />
    </filter>
    <filter
       inkscape:menu="Shadows and Glows"
       inkscape:menu-tooltip="Cut out, add inner shadow and colorize some parts of an image"
       style="color-interpolation-filters:sRGB;"
       inkscape:label="Emergence"
       id="filter116"
       x="-0.39452055"
       y="-0.35820896"
       width="1.9534247"
       height="1.8656716">
      <feColorMatrix
         values="0 0 0 0 0 0 0 0 0 0 0 0 0 0 0 0.21 0.72 0.07 0 0 "
         result="result1"
         id="feColorMatrix111" />
      <feColorMatrix
         values="1 0 0 0 0 0 1 0 0 0 0 0 1 0 0 0 0 0 2 0 "
         result="result9"
         id="feColorMatrix112" />
      <feComposite
         in2="result9"
         in="SourceGraphic"
         operator="in"
         result="result4"
         id="feComposite112" />
      <feFlood
         result="result2"
         flood-color="rgb(0,0,0)"
         id="feFlood112" />
      <feComposite
         in2="result9"
         operator="in"
         result="result10"
         id="feComposite113" />
      <feComposite
         in2="result4"
         operator="atop"
         id="feComposite114" />
      <feGaussianBlur
         stdDeviation="3"
         result="result8"
         id="feGaussianBlur114" />
      <feOffset
         dx="3"
         dy="3"
         result="result3"
         in="result8"
         id="feOffset114" />
      <feFlood
         flood-opacity="1"
         flood-color="rgb(219,173,62)"
         result="result5"
         id="feFlood114" />
      <feMerge
         result="result6"
         id="feMerge116">
        <feMergeNode
           in="result5"
           id="feMergeNode114" />
        <feMergeNode
           in="result3"
           id="feMergeNode115" />
        <feMergeNode
           in="result4"
           id="feMergeNode116" />
      </feMerge>
      <feComposite
         in2="SourceGraphic"
         operator="in"
         result="result7"
         id="feComposite116" />
    </filter>
    <filter
       style="color-interpolation-filters:sRGB;"
       inkscape:label="Drop Shadow"
       id="filter161"
       x="-0.072490763"
       y="-0.091803917"
       width="1.1543697"
       height="1.1954973">
      <feFlood
         result="flood"
         in="SourceGraphic"
         flood-opacity="0.349020"
         flood-color="rgb(0,0,0)"
         id="feFlood160" />
      <feGaussianBlur
         result="blur"
         in="SourceGraphic"
         stdDeviation="19.303686"
         id="feGaussianBlur160" />
      <feOffset
         result="offset"
         in="blur"
         dx="6.000000"
         dy="6.000000"
         id="feOffset160" />
      <feComposite
         result="comp1"
         operator="in"
         in="offset"
         in2="flood"
         id="feComposite160" />
      <feComposite
         result="comp2"
         operator="over"
         in="SourceGraphic"
         in2="comp1"
         id="feComposite161" />
    </filter>
  </defs>
  <sodipodi:namedview
     id="namedview28"
     pagecolor="#505050"
     bordercolor="#eeeeee"
     borderopacity="1"
     inkscape:showpageshadow="0"
     inkscape:pageopacity="0"
     inkscape:pagecheckerboard="0"
     inkscape:deskcolor="#505050"
     inkscape:zoom="0.18920898"
     inkscape:cx="-816.55742"
     inkscape:cy="1038.5342"
     inkscape:window-width="1920"
     inkscape:window-height="1018"
     inkscape:window-x="1080"
     inkscape:window-y="231"
     inkscape:window-maximized="1"
     inkscape:current-layer="svg28" />
  <g
     id="g162">
    <rect
       style="fill:#ffffff;stroke-width:6.53858;stroke-linecap:square;stroke-linejoin:round;stroke-miterlimit:4.5;stroke-opacity:0.886871;paint-order:stroke markers fill"
       id="rect28"
       width="1024"
       height="1024"
       x="0"
       y="0"
       ry="142.03871" />
    <g
       id="g161"
       transform="matrix(1.1013117,0,0,1.1013117,-54.201747,-55.175516)">
      <g
         id="g28"
         transform="translate(5.95,42.675)"
         style="opacity:0.664663;filter:url(#filter56)">
        <path
           d="m 617.5,710.45 -4.75,-0.95 -3.65,-1.8 -3.65,-1.8 -3.15,-2.95 -3.2,-2.95 -1.05,-2.25 -1.05,-2.25 v -2.05 -2 l 1.3,-2.2 1.25,-2.2 0.75,-4.5 0.7,-4.5 1.95,-4.9 c 1.05,-2.7 2.3,-6 2.8,-7.3 l 0.85,-2.4 1.25,-1.5 1.3,-1.5 2.8,-1.4 c 1.55,-0.8 4.25,-1.95 6.05,-2.55 1.8,-0.6 4.2,-1.6 5.35,-2.1 l 2.15,-1 1.75,-2.4 c 2.35,-3.15 3.45,-5.8 5.8,-13.6 l 1.95,-6.5 v -3.4 -3.35 l -0.5,-2.55 -0.45,-2.55 -1.8,-3.65 -1.75,-3.65 v -2.65 -2.65 l 0.55,-1.1 c 0.3,-0.6 1.25,-1.8 2.1,-2.7 l 1.5,-1.6 -0.8,-0.35 -0.85,-0.3 -1.25,0.8 c -0.7,0.45 -1.95,1.75 -2.75,2.85 l -1.45,2 -0.3,1.5 -0.35,1.45 2.4,5.1 2.35,5.1 0.25,6.3 0.25,6.35 -2.6,7.8 -2.6,7.8 -1.15,1.65 -1.1,1.65 -2.6,1.6 -2.65,1.55 -3.9,1.05 -3.85,1.05 h -3 l -2.95,-0.05 -1.55,-2.1 c -0.85,-1.15 -2.15,-3.4 -2.95,-5 l -1.45,-2.9 -1.85,-1.7 -1.9,-1.7 -1.9,-0.5 -1.9,-0.55 h -5.1 -5.1 l -0.5,-1.85 c -1.9,-7.1 -3.05,-12.1 -3.05,-13.45 v -1.55 l -1.2,-1.1 -1.2,-1.15 -2.95,0.35 c -1.6,0.15 -4.15,0.55 -5.65,0.85 l -2.75,0.55 -3.35,1.75 -3.4,1.7 -1.65,1.9 -1.7,1.85 -1.4,3.7 -1.45,3.7 -2.25,2.4 -2.25,2.45 -3.3,1.95 -3.3,1.95 h -5.1 -5.1 l -3.2,-1.2 c -1.75,-0.65 -4.15,-1.8 -5.35,-2.55 l -2.2,-1.4 -3.8,-3.9 -3.85,-3.9 -1.65,-2.9 c -2.2,-3.75 -4.25,-8.5 -5.2,-12.05 l -0.8,-2.85 -0.3,-6.75 -0.3,-6.8 0.85,-4.2 0.85,-4.25 1.55,-3.4 1.6,-3.4 1,-0.75 1,-0.7 h 9.85 9.85 l 2.45,-1.05 2.4,-1 3,-2.35 c 1.65,-1.25 4.7,-3.9 6.75,-5.85 2.05,-1.9 4.55,-4.15 5.55,-4.9 l 1.8,-1.35 2.95,-1.05 2.95,-1 4.9,-0.3 4.85,-0.3 v 2 2.05 l -3.7,4.3 c -2,2.35 -4,5 -4.45,5.9 l -0.8,1.6 0.25,0.4 c 0.55,0.85 1.05,0.25 4.7,-5.2 4.05,-6.05 5.8,-8 8.05,-9.2 l 1.5,-0.75 8.85,-0.45 8.85,-0.45 4.15,-1.3 4.1,-1.3 4.15,-0.45 c 4.75,-0.55 9.55,-0.65 11.8,-0.2 l 1.55,0.35 v 1.5 1.5 l -3.8,4.8 c -2.15,2.65 -4.65,5.65 -5.65,6.7 l -1.75,1.85 1.05,1.05 1.05,1.1 1.9,-2.95 c 1.05,-1.65 3.15,-4.5 4.6,-6.35 l 2.7,-3.45 2.95,-2.15 2.95,-2.15 2.4,-0.8 c 1.3,-0.45 3.95,-1 5.85,-1.3 l 3.5,-0.5 4.5,0.05 h 4.5 l 3.05,0.65 3,0.65 2.5,1.2 2.45,1.2 3.35,3.4 3.35,3.4 1.65,3.3 1.6,3.3 0.3,5.05 0.35,5.05 -0.2,45.25 -0.15,45.25 -0.55,2.75 -0.55,2.75 -1.7,3.7 -1.7,3.75 -2.05,2.65 -2,2.65 -3.3,2.75 -3.3,2.7 -3.8,2 c -3.9,2 -5.8,2.65 -11.55,3.85 l -3.25,0.7 -4.5,-0.05 -4.5,-0.05 z"
           id="path2"
           style="fill:#ffffff" />
        <path
           d="m 574.75,693.7 c -0.55,-0.15 -2.35,-0.6 -4,-1 l -3,-0.8 -3.4,-1.7 c -1.85,-0.95 -4.7,-2.6 -6.3,-3.65 l -2.9,-1.95 -3.6,-3.9 -3.6,-3.85 -2.75,-5.55 -2.75,-5.55 -0.75,-3.7 -0.75,-3.65 0.15,-4.3 0.15,-4.25 3,-1.55 3,-1.55 3,-3 3.05,-3 1.7,-4.25 1.7,-4.2 1.7,-1.9 1.7,-1.9 2.55,-0.75 2.55,-0.75 h 4.4 4.4 l 1.05,1.05 c 1.5,1.5 2.7,4.55 3.7,9.2 l 0.85,4 1.5,1.6 1.5,1.55 6.25,0.2 6.3,0.15 2.2,2.5 2.2,2.5 2.05,4.15 2,4.1 0.25,3.95 0.3,3.95 -1.8,3.2 c -0.95,1.7 -2.45,4.5 -3.25,6.15 l -1.55,3 -0.5,4.85 -0.55,4.9 -0.8,1.95 -0.75,1.9 -3.6,1.1 -3.6,1.05 -6,-0.05 c -3.3,-0.05 -6.45,-0.15 -7,-0.25 z"
           id="path3"
           style="fill:#ffffff" />
        <path
           d="m 701.75,678.05 c -0.8,-0.2 -2.2,-0.75 -3.05,-1.2 l -1.6,-0.8 -1.35,-1.65 c -0.8,-0.9 -1.85,-2.65 -2.4,-3.85 l -0.95,-2.2 0.2,-5.05 0.2,-5.05 0.9,-1.75 c 1.3,-2.45 2.75,-3.95 5,-5.1 l 2,-1 5.7,0.2 5.75,0.2 4.55,-3.35 c 2.5,-1.9 6.05,-4.25 7.85,-5.25 l 3.35,-1.8 0.9,-2.05 0.9,-2 1.75,-0.7 1.7,-0.75 6.3,-0.25 6.35,-0.3 1.6,0.85 1.6,0.8 0.8,1.65 0.85,1.6 0.25,3.3 0.2,3.25 -0.75,1.5 c -0.4,0.8 -1.45,2.15 -2.35,2.95 l -1.55,1.5 h -4.6 -4.6 l -1.6,-1.15 -1.65,-1.15 -2.4,1.3 c -2.05,1.1 -6.75,4.5 -11.2,8.05 l -1.3,1 0.25,3.35 0.3,3.35 -0.65,2.15 -0.6,2.2 -1.85,2.45 -1.85,2.45 -2.1,1.15 -2.1,1.2 -3.65,0.15 -3.6,0.2 z"
           id="path4"
           style="fill:#ffffff" />
        <path
           d="m 739.25,632.55 c -1.95,-0.5 -3.55,-1.35 -5.9,-3.2 l -1.9,-1.45 -0.95,-1.95 -1,-1.9 v -3.75 -3.8 l 0.8,-2 0.8,-2 -2.05,-3.45 -2,-3.4 -3.9,-4.4 c -2.15,-2.45 -5.4,-5.75 -7.25,-7.35 l -3.3,-3 -1.15,0.6 -1.1,0.6 -3,-0.25 -3,-0.25 -1.3,-1 -1.3,-0.95 -0.65,-1.95 -0.7,-1.95 -0.2,-4.25 -0.15,-4.25 -1.5,-1.25 c -1.85,-1.6 -7.85,-4.55 -12.05,-6.05 l -3.25,-1.1 -1.85,0.35 -1.85,0.35 -3.4,3.2 -3.4,3.25 h -1.6 -1.6 l -0.55,-0.95 -0.5,-1 v -10.9 -10.9 l 0.3,-1.85 0.35,-1.9 h 1.75 1.75 l 1.65,1.05 1.7,1 1,1.45 c 0.55,0.8 2.45,2.7 4.25,4.25 l 3.2,2.8 4.9,1.2 4.9,1.25 6.35,3.15 6.3,3.2 2.45,-0.9 c 1.3,-0.5 2.8,-1.15 3.25,-1.45 0.5,-0.25 3.2,-1.4 6,-2.55 l 5.15,-2.05 2,0.35 c 1.1,0.2 6.95,0.45 13,0.55 l 11,0.25 1.75,-1.05 c 0.95,-0.55 3.35,-1.8 5.25,-2.7 l 3.5,-1.7 5.25,-6.1 c 2.9,-3.35 5.75,-6.75 6.4,-7.5 l 1.1,-1.35 -0.3,-3.05 -0.35,-3.05 -5.3,-2.1 c -2.9,-1.15 -8.35,-3.5 -12.05,-5.2 l -6.75,-3.15 -1.8,1.65 -1.8,1.6 -2.3,0.9 -2.35,0.9 -3.35,-0.3 -3.4,-0.25 -2.25,-1 -2.25,-0.95 -1.45,-1.45 c -0.75,-0.8 -1.9,-2.35 -2.5,-3.45 l -1.05,-2 v -5.5 -5.5 l 1.15,-1.85 c 0.6,-1 2,-2.6 3.05,-3.55 l 1.9,-1.75 1.95,-0.65 1.95,-0.7 h 4 4 l 2.6,1.35 2.55,1.35 1,1.4 c 0.55,0.8 1.35,2.15 1.8,3.05 l 0.85,1.65 0.35,2.8 0.35,2.85 1.5,0.3 c 0.85,0.2 2.65,0.95 4.05,1.65 1.45,0.7 5.4,2.4 8.8,3.8 3.45,1.35 6.95,2.8 7.85,3.25 l 1.6,0.85 1.95,-1.7 2,-1.7 1.95,-0.55 1.9,-0.6 h 4.2 4.15 l 2.15,1.05 2.15,1.05 2,2.25 2,2.3 0.75,2.5 0.75,2.55 v 2.85 2.9 l -1,2.65 -1,2.7 -2.1,2.05 -2.15,2.1 -2.2,0.8 -2.2,0.75 h -3.05 -3.05 l -1.5,-0.45 -1.55,-0.4 -3.7,4.45 c -2,2.45 -5.2,6.25 -7.05,8.4 l -3.4,3.95 -0.35,1.4 c -0.2,0.75 -0.65,2 -1.05,2.75 l -0.65,1.4 -1.55,0.8 -1.55,0.75 -4.55,-0.25 c -2.55,-0.15 -10.45,-0.4 -17.55,-0.6 l -12.95,-0.3 -4.7,1.9 -4.7,1.9 0.3,1.05 c 0.15,0.55 0.55,2.2 0.85,3.65 l 0.55,2.6 4.8,4.25 4.85,4.25 3.7,4.25 3.7,4.25 2.2,3.5 2.2,3.5 h 3.3 3.3 l 2.1,1.05 2.15,1 1.8,2.05 1.85,2 0.5,1.45 0.5,1.45 h 8.7 8.7 l 0.8,-1.3 0.85,-1.25 1.4,-0.75 1.4,-0.7 h 3.05 3.05 l 2,1.05 2.05,1 0.7,1.7 0.7,1.7 v 2.95 2.9 l -0.8,2.35 -0.8,2.3 -1.65,1.05 -1.6,1 h -3.6 -3.6 l -1.4,-0.7 -1.4,-0.75 -0.85,-1.25 -0.8,-1.3 h -8.25 -8.25 l -0.55,1.4 -0.5,1.35 -1.6,1.65 c -0.9,0.95 -2.2,2 -2.95,2.4 l -1.35,0.7 -4.4,-0.05 c -2.4,-0.05 -5.05,-0.2 -5.9,-0.4 z"
           id="path5"
           style="fill:#ffffff" />
        <path
           d="m 505.45,581.15 c -2.95,-3.15 -4.8,-6.05 -6.5,-10.2 l -1.35,-3.35 -0.65,-3.8 -0.6,-3.85 0.3,-5.85 0.3,-5.85 1.05,-3.95 1.05,-3.95 1.3,-2.55 c 0.7,-1.4 2.15,-3.8 3.15,-5.3 l 1.85,-2.75 2.55,-2.4 2.55,-2.35 1.3,-0.5 1.3,-0.5 h 5.35 5.35 l 3.25,0.55 c 1.8,0.25 4.4,0.9 5.75,1.4 l 2.5,0.95 1.75,-0.65 c 0.95,-0.35 2.6,-1 3.6,-1.45 l 1.85,-0.8 h 1.3 1.3 l 1.1,0.6 c 0.6,0.3 2.25,1.4 3.6,2.45 l 2.5,1.85 3.75,1.8 3.7,1.8 h 1.1 c 0.65,0 3.1,-0.7 5.55,-1.55 2.4,-0.85 5.85,-2 7.65,-2.55 l 3.25,-0.95 3.05,0.15 3.05,0.2 4.7,2.4 c 5.2,2.65 9.85,5.8 12.3,8.4 l 1.6,1.65 1.8,5 1.8,5 2.25,4.2 2.2,4.15 v 1.4 1.4 l -3.1,0.35 c -1.75,0.2 -5.5,0.85 -8.4,1.5 l -5.25,1.15 -8.5,0.4 c -4.65,0.2 -12.55,0.45 -17.5,0.45 l -9,0.1 -2.15,0.8 c -3.15,1.2 -9.65,5.95 -14.85,10.9 l -2.5,2.4 -3,1.8 -3,1.8 -6.75,-0.1 -6.75,-0.15 -5.75,0.4 -5.75,0.45 z"
           id="path6"
           style="fill:#ffffff" />
        <path
           d="m 618.1,561.05 c -0.9,-0.25 -2.5,-1.05 -3.65,-1.75 l -2,-1.35 -2,-3.05 -1.95,-3.05 -1.05,-3.3 -1.05,-3.3 -0.25,-4.1 -0.25,-4.1 3.15,-3.2 c 3.6,-3.55 9.65,-8.2 13.85,-10.55 l 2.85,-1.6 1.85,-2.45 1.9,-2.5 0.8,-2.25 0.75,-2.25 0.3,-5.75 0.25,-5.75 -1.05,-4.9 c -0.55,-2.7 -1.15,-6.3 -1.35,-8 l -0.3,-3.15 2.55,-3.15 2.55,-3.2 -0.3,-0.45 -0.3,-0.45 -0.75,0.65 c -0.45,0.35 -1.7,1.85 -2.75,3.25 l -1.95,2.65 h -1.85 -1.85 l -6.5,-3.75 -6.5,-3.75 -2.1,-2.3 -2.15,-2.3 -0.5,-2 -0.55,-2 0.1,-9.05 0.1,-9.1 -1.05,-2.75 c -0.55,-1.5 -1.5,-4 -2.05,-5.5 L 602,438.75 v -3.15 -3.15 l 1.2,-2.35 1.2,-2.35 2.2,-2.05 c 1.15,-1.15 3.4,-3 4.9,-4.1 l 2.75,-2.05 3.3,-1.45 3.35,-1.5 4.4,-1.15 4.45,-1.1 h 6.75 l 6.75,0.05 4.1,1.2 4.05,1.2 2.85,1.75 2.85,1.7 3.95,4.15 3.95,4.15 0.1,12.1 c 0.05,6.65 0.05,32.15 -0.05,56.6 l -0.15,44.5 -0.7,2.5 -0.7,2.5 -1.55,2.7 -1.6,2.75 -2.4,2.35 -2.45,2.4 -3.35,1.65 -3.35,1.65 -10.05,0.35 c -5.5,0.2 -12,0.5 -14.5,0.6 l -4.5,0.25 z"
           id="path7"
           style="fill:#ffffff" />
        <path
           d="m 596.2,532.35 c -3.1,-1.95 -7.6,-4.65 -10.1,-5.95 l -4.5,-2.4 -1.5,-3.85 -1.5,-3.9 -0.55,-3.25 c -0.3,-1.8 -0.65,-3.7 -0.8,-4.3 l -0.25,-1.05 -1.2,-0.55 -1.25,-0.55 -1.1,0.9 -1.15,0.9 1.35,2.7 c 0.75,1.5 1.95,4.15 2.65,5.95 l 1.35,3.25 0.05,2 0.05,2 -6.25,2.4 -6.25,2.35 -4.55,-0.1 -4.6,-0.15 -3.45,-2.35 -3.45,-2.35 -2.9,-3.3 -2.9,-3.3 -0.95,0.85 -0.95,0.85 v 1.3 c 0,1.6 -0.4,2.2 -1.85,3 l -1.1,0.55 h -1.8 -1.75 l -3,-1.2 -2.95,-1.2 -3.65,-0.6 -3.6,-0.55 -4.1,0.35 -4.1,0.35 -0.55,-2.6 -0.55,-2.6 v -3.4 -3.4 l 0.75,-4.4 0.8,-4.45 1.4,-3.3 1.4,-3.35 2.65,-3.85 2.65,-3.85 4.1,-3.85 4.1,-3.85 3.55,-1.9 3.55,-1.9 3.4,-0.7 3.4,-0.75 h 2.5 2.5 l 1.75,0.5 1.7,0.5 2.85,2.8 2.85,2.8 0.55,-0.3 c 0.3,-0.2 0.55,-0.65 0.55,-1.05 v -0.7 l -3.45,-2.65 -3.5,-2.65 V 467 l -0.05,-5.25 1.25,-3.45 1.2,-3.45 2.2,-3.3 c 1.2,-1.8 3.35,-4.55 4.75,-6.1 l 2.6,-2.85 3.85,-2.55 3.9,-2.55 3.75,-1.45 3.75,-1.45 4.7,-0.55 4.7,-0.6 2.3,0.35 c 1.25,0.2 3.15,0.65 4.2,1.1 l 1.9,0.75 0.95,1.9 c 0.55,1.05 1.65,3.75 2.5,6 l 1.5,4.15 v 10.3 10.3 l 0.8,2.35 0.8,2.3 2,2.3 2,2.3 4.6,2.65 c 2.5,1.45 6.15,3.5 8.15,4.5 l 3.6,1.9 0.95,2.05 c 0.55,1.15 1.25,3 1.55,4.1 l 0.6,2 0.3,7.25 0.3,7.25 -0.4,3.45 -0.35,3.45 -2.3,2.45 -2.3,2.5 -4.85,2.95 -4.85,2.95 -3.3,3.05 -3.35,3.05 -0.75,1.45 -0.75,1.45 h -1.6 -1.6 z"
           id="path8"
           style="fill:#ffffff" />
        <path
           d="m 712.1,511.5 -2.05,-1.45 -1.35,-2.4 c -0.75,-1.3 -2.1,-3.2 -3,-4.15 l -1.6,-1.75 -0.55,-2 -0.6,-2 -0.3,-7.6 -0.3,-7.6 -1.25,-0.3 c -0.65,-0.15 -2.05,-0.85 -3,-1.5 l -1.8,-1.25 -1.4,-2.05 -1.4,-2.1 -0.5,-1.8 -0.5,-1.8 v -3.3 -3.3 l 0.7,-2.3 0.7,-2.3 1.05,-1.5 1.1,-1.55 2.3,-1.35 2.35,-1.35 4.3,-0.2 4.3,-0.2 2.6,1.1 2.65,1.15 1.95,2.25 2,2.25 v 0.65 0.7 h 0.65 c 0.3,0 4.3,-0.5 8.8,-1.1 l 8.2,-1.1 0.6,-1.5 0.65,-1.55 1.6,-1.5 1.55,-1.5 4.1,-0.15 4.1,-0.15 2.2,1.15 2.25,1.15 1,1.4 1.05,1.4 0.2,4 0.15,3.95 -0.3,1.25 -0.3,1.25 -1.6,1.8 -1.65,1.85 -1.6,0.65 -1.6,0.7 h -3.4 -3.4 l -1.7,-1.05 c -0.95,-0.55 -2.1,-1.5 -2.55,-2.1 l -0.85,-1.05 -4.7,0.65 c -2.6,0.35 -6.25,0.75 -8.1,0.9 l -3.4,0.25 -1.4,3.1 -1.4,3.05 -1.45,1.25 c -0.85,0.7 -1.95,1.6 -2.55,2 l -1,0.75 0.4,4.65 0.45,4.6 1.25,3.1 1.25,3.1 2.6,3.95 2.6,3.95 0.2,2.95 0.2,2.95 -0.6,0.75 -0.6,0.75 h -3.15 -3.1 z"
           id="path9"
           style="fill:#ffffff" />
        <path
           d="m 695.4,710.5 -3.85,-0.95 -3.25,-1.5 -3.3,-1.5 -2.85,-2.2 c -5.55,-4.3 -8.9,-8.65 -11.7,-15.2 l -1.7,-3.9 -0.25,-55 C 668.35,600 668.35,574.4 668.45,573.4 l 0.15,-1.9 h 0.7 0.7 v 0.65 c 0,0.35 0.3,1.05 0.65,1.5 l 0.6,0.85 3.15,-3 3.15,-3.05 1.25,-0.45 1.25,-0.5 h 2.75 2.75 l 4,1.55 c 4.55,1.75 9.6,4.45 11.4,6.1 l 1.15,1.1 -0.3,2.35 -0.25,2.4 0.55,3.1 0.55,3.1 1.3,1.35 1.3,1.3 1.9,0.35 1.9,0.35 1.65,-1 c 0.9,-0.6 1.8,-1.05 2,-1.05 0.15,0 2.1,1.6 4.3,3.55 l 4.05,3.55 3.75,4.25 3.7,4.3 2.55,4.2 2.55,4.15 -1.3,2.6 -1.3,2.6 v 2.4 2.45 l 1,1.9 0.95,1.95 1.9,1.45 c 1.05,0.85 2.65,1.9 3.55,2.35 l 1.7,0.85 3.4,0.3 3.4,0.3 1.3,-0.35 1.35,-0.35 2.05,-1.85 2.05,-1.85 0.7,-1.6 L 755,624 h 9.75 9.75 l 0.8,1.3 0.85,1.25 1.4,0.75 1.4,0.7 h 2.1 2.1 l 1.6,-1 1.65,-1.05 0.8,-2.3 c 0.45,-1.3 0.8,-2.95 0.8,-3.75 v -1.45 l -0.7,-1.7 -0.7,-1.7 -2.05,-1 -2,-1.05 H 781 779.45 l -1.4,0.7 -1.4,0.75 -0.85,1.25 -0.8,1.3 h -10.2 -10.2 l -0.5,-1.45 -0.5,-1.45 -1.85,-2 -1.8,-2.05 -2.3,-1.1 -2.25,-1.1 -2.95,0.35 -3,0.3 -2.45,-3.8 -2.4,-3.85 -3.65,-4.15 -3.65,-4.2 -4.85,-4.3 -4.85,-4.25 -0.35,-2.1 -0.35,-2.1 -1.15,-2.6 -1.2,-2.65 0.85,-0.45 c 0.45,-0.25 2.85,-1.25 5.3,-2.3 l 4.5,-1.85 14.5,0.3 c 8,0.15 15.95,0.4 17.6,0.6 l 3.1,0.3 1.55,-0.8 1.55,-0.8 0.65,-1.4 c 0.4,-0.75 0.85,-2 1.05,-2.75 l 0.35,-1.45 3.1,-3.55 c 1.7,-2 5.1,-6 7.55,-8.95 l 4.45,-5.35 1.45,0.75 1.45,0.75 2.4,0.3 2.4,0.25 2.5,-0.8 2.45,-0.8 2.1,-2.15 2.15,-2.15 0.95,-2.6 1,-2.6 v -1.4 c 0,-0.8 -0.35,-2.55 -0.75,-3.95 l -0.75,-2.5 -2,-2.3 -2,-2.25 -2.15,-1.05 -2.15,-1.05 h -2.65 -2.7 l -2,0.6 -2.05,0.6 -2.25,2.2 -2.25,2.15 -4.3,-2 c -2.35,-1.05 -6.3,-2.75 -8.8,-3.7 -2.5,-0.95 -5.75,-2.35 -7.25,-3.15 -1.5,-0.75 -3.35,-1.5 -4.2,-1.7 l -1.5,-0.3 -0.35,-2.85 -0.35,-2.8 -0.85,-1.65 c -0.45,-0.9 -1.25,-2.25 -1.8,-3.05 l -1,-1.4 -2.55,-1.3 -2.6,-1.35 h -2.5 -2.5 l -1.95,0.65 -1.95,0.65 -1.9,1.75 c -1.05,0.95 -2.45,2.55 -3.05,3.55 l -1.15,1.85 v 4 4 l 1.1,2 c 0.55,1.1 1.7,2.65 2.45,3.45 l 1.45,1.45 2.2,0.95 c 1.25,0.5 3.15,1.05 4.3,1.25 l 2.1,0.25 2.45,-1.05 2.45,-1.1 1.8,-1.75 1.85,-1.8 1.15,0.35 c 0.65,0.2 4.25,1.8 7.95,3.5 3.7,1.7 9.15,4.05 12.15,5.25 l 5.35,2.1 v 1.7 1.65 l 0.8,2.3 0.75,2.3 -1.9,2.2 c -1.05,1.2 -4.15,4.8 -6.9,8 l -5,5.85 -3.5,1.7 c -1.9,0.9 -4.3,2.15 -5.25,2.7 l -1.75,1 H 739.4 727.55 l -1.3,-0.5 -1.25,-0.5 -5.15,2.05 c -2.8,1.1 -5.3,2.2 -5.6,2.4 -0.25,0.25 -2.05,1 -4,1.75 l -3.5,1.3 -7,-3.5 -7,-3.55 -4.9,-1.2 -4.9,-1.2 -3.2,-2.8 c -1.8,-1.55 -3.7,-3.45 -4.25,-4.25 l -1,-1.45 -1.7,-1 c -2.05,-1.3 -2.2,-1.3 -2.4,-0.05 l -0.15,0.95 -0.75,-0.45 -0.75,-0.45 -0.15,-61.5 -0.15,-61.55 4.05,-4.2 4,-4.15 3.65,-1.85 3.6,-1.85 5,-1 5,-1.05 6.25,0.25 6.25,0.25 3.75,1.1 3.75,1.05 3.35,1.7 3.35,1.65 2.9,2.25 c 3.25,2.5 7.8,7.2 9.65,9.9 l 1.2,1.85 6.75,-0.25 6.8,-0.25 4.5,1.05 4.5,1.1 4,1.95 4,1.9 3.55,3 3.5,3 2.85,3.75 2.9,3.7 1.65,3.95 c 1.8,4.25 2.6,7.3 3.1,11.85 l 0.3,2.9 0.95,0.45 0.9,0.5 h 2.05 2.05 l 3.1,1.05 c 1.7,0.55 4.85,1.95 7,3.05 l 3.9,2.05 3.65,3.4 3.65,3.4 2.8,4.15 2.75,4.15 1.25,3 c 0.65,1.65 1.6,4.35 2.1,6 l 0.85,3 0.1,6.25 0.05,6.25 -0.35,1.75 -0.35,1.75 2.45,1.85 2.45,1.9 2.8,3.35 2.75,3.35 2.2,4.55 2.25,4.5 1.1,5.25 1.05,5.25 -0.25,7 -0.2,7 -1.3,4 -1.3,4 -1.8,3 -1.8,3 -2.1,2.15 c -1.15,1.2 -2.7,2.5 -3.4,2.95 l -1.3,0.8 1.7,4.25 1.75,4.25 0.7,3.8 0.65,3.8 v 5.5 5.5 l -0.7,3.9 -0.65,3.85 -1.4,3.65 c -0.75,1.95 -2.15,5.05 -3.1,6.85 l -1.75,3.25 -4.55,4.5 -4.55,4.5 -3.75,1.9 -3.75,1.85 -3,0.75 c -1.6,0.4 -3.85,0.75 -5,0.8 -1.1,0 -2.45,0.2 -2.95,0.4 l -0.95,0.35 0.1,4 0.1,3.95 -0.55,3.65 -0.5,3.65 -1.8,4.35 -1.8,4.35 -2.15,3 c -1.15,1.65 -3.15,4.15 -4.4,5.55 l -2.3,2.55 -3.75,2.6 -3.75,2.55 -3.4,1.45 -3.4,1.45 -4,0.85 -4.05,0.8 -4.7,0.1 -4.75,0.1 -3.85,-0.4 -3.8,-0.4 -1.65,2.9 -1.65,2.9 -3,3 -3.05,3.05 -4,2.05 c -2.2,1.15 -5.25,2.45 -6.75,2.9 l -2.75,0.85 -8.25,0.2 -8.25,0.2 z m 15.85,-35.15 1.95,-1.1 1.85,-2.45 1.85,-2.45 0.65,-2.25 0.6,-2.25 -0.6,-2.05 c -0.3,-1.15 -0.7,-2.4 -0.85,-2.8 l -0.25,-0.8 4.3,-3.4 c 2.4,-1.85 5.7,-4.25 7.4,-5.35 l 3,-1.95 1.95,-0.5 1.9,-0.55 1.85,1.4 1.8,1.4 h 3.15 3.15 l 1.55,-1.5 c 0.9,-0.8 1.95,-2.15 2.35,-2.95 l 0.75,-1.45 -0.3,-2 c -0.2,-1.05 -0.65,-2.6 -1.05,-3.4 l -0.75,-1.45 -1.6,-0.8 -1.6,-0.85 -4.95,0.35 -4.9,0.3 -1.6,0.7 -1.65,0.65 -0.9,2 -0.9,2.05 -3.35,1.85 c -1.9,1 -5.15,3.2 -7.35,4.8 -2.15,1.65 -4.65,3.45 -5.5,4 l -1.55,0.95 -1.8,-0.75 -1.8,-0.75 H 705 701.95 l -1.85,0.95 c -2.2,1.1 -3.65,2.65 -4.85,5.05 l -0.9,1.75 -0.25,3.55 -0.2,3.55 0.95,2.2 c 0.55,1.2 1.6,2.95 2.4,3.85 l 1.35,1.65 1.6,0.8 c 0.85,0.45 2.25,1 3.05,1.2 l 1.5,0.4 2.25,-0.25 2.25,-0.3 z m 8.25,-164.6 0.6,-0.75 -0.3,-1.6 -0.3,-1.6 -2.5,-3.8 -2.5,-3.8 -1.25,-3.05 -1.25,-3.1 -0.55,-6.15 -0.55,-6.1 1.15,-0.8 c 0.65,-0.4 1.8,-1.3 2.65,-2 l 1.45,-1.25 1.4,-3.05 1.4,-3.05 3.65,-0.3 c 2,-0.15 6,-0.65 8.9,-1.05 2.9,-0.45 5.6,-0.8 6.05,-0.8 h 0.8 l 0.6,1.2 0.65,1.15 1.9,1.1 1.9,1.05 h 1.8 1.85 l 1.6,-0.7 1.6,-0.65 1.65,-1.85 1.6,-1.8 0.3,-1.3 0.3,-1.25 -0.2,-2.5 -0.25,-2.5 -1,-1.35 -0.95,-1.35 -2.25,-1.15 -2.2,-1.15 -2.65,0.2 -2.6,0.2 -1.55,1.45 -1.55,1.45 -0.6,1.5 -0.65,1.55 -9.85,1.35 -9.8,1.4 -0.5,-0.3 c -0.3,-0.15 -0.5,-0.6 -0.5,-0.95 v -0.65 l -2,-2.25 -1.95,-2.25 -2.65,-1.15 -2.6,-1.1 -2.9,0.25 -2.9,0.25 -2.2,1.3 -2.25,1.3 -1.1,1.55 -1.05,1.5 -0.7,2.3 -0.7,2.3 v 1.8 c 0,1 0.25,2.6 0.5,3.6 l 0.5,1.8 1.4,2.1 1.4,2.05 1.8,1.25 c 0.95,0.65 2.35,1.35 3,1.5 l 1.25,0.3 0.3,7.6 0.3,7.6 0.6,2 0.55,2 1.6,1.75 c 0.9,0.95 2.25,2.85 3,4.15 l 1.35,2.4 2.05,1.45 2.05,1.5 h 1.6 1.65 z"
           id="path10"
           style="fill:#f6841b" />
        <path
           d="m 262.9,699.7 c -0.8,-0.4 -1.45,-0.8 -1.5,-0.85 -0.1,-0.05 -0.25,-18.9 -0.4,-41.85 l -0.25,-41.75 -5.25,-0.35 -5.25,-0.3 -4.5,-1.35 c -2.45,-0.7 -6,-1.95 -7.8,-2.7 l -3.3,-1.4 -4.45,-2.9 -4.45,-2.9 -3.55,-3.55 -3.5,-3.55 -2.3,-3.25 c -1.25,-1.8 -3.2,-5.05 -4.3,-7.25 l -2,-4 -1.05,-3.5 c -0.55,-1.9 -1.35,-5.15 -1.75,-7.1 l -0.8,-3.65 0.25,-99.35 0.25,-99.4 0.3,-2.75 0.3,-2.75 1.5,-4.75 1.5,-4.75 2.05,-3.95 c 2.5,-4.8 5.25,-8.6 9.55,-13.2 l 3.3,-3.5 3.65,-2.45 c 1.95,-1.4 4.85,-3.25 6.4,-4.1 l 2.8,-1.55 4.3,-1.45 c 2.35,-0.8 5.9,-1.75 7.9,-2.15 l 3.6,-0.65 0.25,-0.85 0.2,-0.9 h 153.9 153.85 l 4.3,0.75 c 8.95,1.55 16.35,4.55 23.4,9.5 l 3.95,2.8 2.85,3.25 c 7.1,8.05 11.25,16.15 13.4,26.2 l 0.7,3.25 0.1,24.65 c 0.05,13.55 0,24.7 -0.1,24.75 -0.1,0.05 -1.1,0.55 -2.2,1.1 l -1.95,1 -5.3,5.25 -5.25,5.25 -5.5,0.05 -5.5,0.05 -3.85,0.85 -3.9,0.85 -4.3,1.8 -4.25,1.8 -3.65,2.35 -3.7,2.4 -2.85,2.85 c -3.6,3.6 -8.4,10.1 -10.35,14 -1.85,3.6 -3.9,9.45 -3.9,11.05 v 1.15 l -2.1,0.55 c -4.25,1.1 -7.2,2.15 -10.45,3.8 l -3.35,1.65 -3.75,3.05 c -8.35,6.7 -14.8,15.75 -17.75,25 l -1.05,3.25 -0.55,3.9 -0.55,3.9 0.35,4.5 0.35,4.5 -3.25,3.35 -3.25,3.35 -2.35,3.65 -2.35,3.6 -1.5,3.55 c -1.9,4.5 -3.3,9.9 -3.95,15.4 l -0.55,4.3 0.75,5.55 0.75,5.6 1.65,4.4 1.65,4.45 1.9,2.8 c 1,1.55 2.65,3.6 3.65,4.65 l 1.8,1.85 -0.25,1.85 c -0.1,1 -0.95,4.1 -1.85,6.85 l -1.65,5 -0.2,7.9 -0.25,7.85 h -68.1 l -68.05,0.05 -8.5,7.95 -8.5,8 h -1.4 -1.4 l -8,7.65 c -4.45,4.15 -9.65,9.05 -11.65,10.85 -4.95,4.45 -35.2,32.5 -45.4,42.1 l -8.35,7.9 h -1.4 l -1.4,-0.05 z m 98,-154.05 0.1,-8.65 h -8.75 -8.75 v 8.4 c 0,4.65 0.1,8.55 0.25,8.65 0.1,0.15 4,0.25 8.6,0.25 l 8.4,-0.05 z m 43.6,0 V 537 h -8.5 -8.5 v 8.65 8.65 h 8.5 l 8.5,-0.05 z m 44.4,0 0.1,-8.55 -6.35,-0.15 c -3.55,-0.1 -7.5,-0.1 -8.9,0.05 l -2.5,0.25 -0.15,7.95 -0.15,7.9 0.6,0.75 0.6,0.7 8.3,-0.15 8.3,-0.2 z m 13.65,-24.55 1.45,-1.35 0.1,-61.65 0.15,-61.7 -1.65,-1.45 -1.6,-1.45 H 396.05 331.1 l -1.55,1.55 -1.55,1.55 v 61.5 61.5 l 1.5,1.45 1.45,1.5 65.05,-0.05 65.1,-0.1 z M 311.5,494 v -8.5 H 302.75 294 v 8.5 8.5 h 8.75 8.75 z m 185.6,2.7 c 0.1,-3.25 0.1,-7.05 0,-8.5 l -0.2,-2.7 h -8.4 -8.4 l -0.3,0.8 -0.3,0.8 v 7.35 7.4 l 0.35,0.3 0.3,0.35 h 8.35 8.35 z M 497,454.05 v -8.45 l -6.85,-0.2 -6.9,-0.2 -1.75,0.3 -1.75,0.25 -0.15,7.75 c -0.05,4.25 0,8 0.1,8.35 l 0.25,0.65 h 8.55 8.5 z M 311.5,453.8 v -8.15 l -1.85,-0.35 c -1.05,-0.15 -5,-0.3 -8.75,-0.3 H 294 v 8.5 8.5 h 8.75 8.75 z m 0,-39.05 V 406 H 302.75 294 v 8.75 8.75 h 8.75 8.75 z m 185.4,-0.1 0.1,-8.65 h -8.5 -8.5 l -0.1,6.4 c -0.15,8.15 -0.1,9.35 0.25,10.3 l 0.35,0.8 8.1,-0.1 8.15,-0.15 z m -136,-44.55 0.1,-8.6 -8.6,0.1 -8.65,0.15 -0.15,8 c -0.05,4.35 -0.05,8.2 0.05,8.5 l 0.2,0.5 h 8.45 8.45 z m 43.7,6.4 c 0.1,-1.25 0.1,-5.1 0,-8.6 l -0.2,-6.4 h -8.45 -8.45 v 8.4 c 0,4.65 0.1,8.55 0.2,8.65 0.1,0.1 3.95,0.2 8.45,0.2 h 8.25 z m 44.3,-6.35 -0.15,-8.4 -8.6,-0.15 -8.65,-0.1 v 8.5 8.5 h 8.75 8.75 z"
           id="path11"
           style="fill:#f6841b" />
        <path
           d="m 345.35,494.7 c -0.2,-0.2 -0.35,-1 -0.35,-1.8 v -1.5 l 2.55,-7.05 c 1.4,-3.9 3.95,-10.9 5.7,-15.6 1.75,-4.65 5,-13.45 7.25,-19.5 3.8,-10.3 4.7,-12.65 8.45,-22.25 l 1.45,-3.75 9.8,-0.15 9.8,-0.1 0.5,1.1 c 2,4.7 17.25,44.3 20,51.9 1.05,2.9 2.85,7.6 3.95,10.45 l 2.1,5.2 -0.15,1.55 -0.15,1.55 h -8.95 -8.95 l -2.3,-6 c -1.25,-3.3 -2.5,-6.3 -2.7,-6.6 l -0.4,-0.65 H 380.2 367.45 l -0.2,0.65 c -0.1,0.3 -1.15,3.3 -2.35,6.6 l -2.15,6 -8.55,0.15 -8.5,0.1 z m 42.35,-29.35 c -0.15,-0.6 -1.5,-4.15 -2.95,-7.85 -1.45,-3.7 -3.05,-8.05 -3.55,-9.65 l -0.9,-2.85 -2.45,6.6 c -3.1,8.55 -5.35,14.8 -5.35,15 0,0.1 3.5,0.1 7.8,0 l 7.75,-0.15 z"
           id="path12"
           style="fill:#f6841b" />
        <path
           d="m 420.5,459 v -36 h 9 9 l 0.1,33.25 c 0.05,18.3 0.1,34.45 0.15,35.9 v 2.6 l -9.1,0.15 -9.15,0.1 z"
           id="path13"
           style="fill:#f6841b" />
        <path
           d="m 619.5,721.15 c -0.95,-0.1 -3.65,-0.75 -6,-1.45 l -4.25,-1.3 -3.75,-1.95 c -2.05,-1.05 -5.2,-3.05 -7,-4.4 l -3.3,-2.45 -3.05,-3.45 -3.05,-3.45 -4.3,0.45 -4.35,0.5 -5.4,-0.8 -5.45,-0.8 -4.55,-1.7 -4.55,-1.7 -4.05,-2.45 -4.1,-2.45 -4,-3.75 -4,-3.75 -2.85,-3.55 -2.8,-3.5 -2.3,-4.5 -2.3,-4.45 -1.25,-4.1 c -0.75,-2.2 -1.45,-5.2 -1.65,-6.65 l -0.35,-2.6 -1.05,-0.4 c -0.6,-0.2 -2.35,-0.75 -3.9,-1.2 l -2.85,-0.85 -3.75,-2.1 -3.8,-2.1 -3.45,-2.9 -3.5,-2.95 -3.1,-3.95 c -1.75,-2.2 -3.75,-5 -4.45,-6.25 l -1.35,-2.25 H 420.35 341 v -0.7 c 0,-0.4 0.15,-0.75 0.4,-0.75 0.2,0 4.2,-3.6 8.85,-8 l 8.5,-7.95 68.05,-0.05 h 68.05 l 0.05,-5.95 0.05,-5.95 0.5,-2.95 c 0.3,-1.65 1.2,-4.95 2,-7.4 l 1.45,-4.45 -1.7,-1.7 c -0.95,-1 -2.55,-3 -3.55,-4.55 l -1.9,-2.8 -1.65,-4.45 -1.65,-4.4 -0.75,-5.6 -0.8,-5.55 0.35,-4.5 0.3,-4.5 0.95,-4.35 0.95,-4.35 1.55,-3.9 1.55,-3.9 2.35,-3.75 2.3,-3.7 3.35,-3.55 3.35,-3.5 -0.25,-4.3 -0.3,-4.35 0.6,-4.15 0.6,-4.2 1.05,-3.25 c 2.95,-9.25 9.4,-18.3 17.75,-25 l 3.75,-3.05 3.35,-1.65 c 3.25,-1.65 6.2,-2.7 10.45,-3.8 l 2.1,-0.55 v -1.15 c 0,-1.6 2.05,-7.45 3.9,-11.05 1.95,-3.9 6.75,-10.4 10.35,-14 l 2.85,-2.85 3.7,-2.4 3.65,-2.35 4.25,-1.8 4.3,-1.8 3.9,-0.85 3.85,-0.85 5.55,-0.15 5.55,-0.15 5.2,-5.15 5.25,-5.15 1.95,-1 c 1.1,-0.55 2.05,-1.05 2.15,-1.05 0.05,-0.05 0.15,-10.45 0.1,-23.15 V 366.5 l -0.75,-3.4 c -2.15,-10.15 -6.25,-18.2 -13.4,-26.3 l -2.85,-3.25 -3.95,-2.8 c -7.05,-4.95 -14.45,-7.95 -23.4,-9.5 l -4.3,-0.75 H 407.75 254.6 l -0.3,-1.65 -0.3,-1.6 0.5,-4.15 0.55,-4.2 1.2,-3.8 1.2,-3.85 2.25,-3.9 2.25,-3.9 2.85,-3.5 c 3.15,-3.85 5.2,-5.65 10.35,-9.1 l 3.4,-2.25 4.4,-1.75 c 2.4,-1 6.05,-2.15 8.05,-2.65 l 3.75,-0.9 163.35,-0.3 163.3,-0.25 3.7,-3.5 c 2,-1.95 7.15,-6.65 11.4,-10.55 4.25,-3.85 10.3,-9.35 13.45,-12.25 7,-6.35 23.75,-21.45 28.9,-26.05 l 3.8,-3.4 h 2.1 2.1 l 1.05,1.15 1.1,1.15 v 93.4 93.4 l 0.9,-0.35 0.85,-0.35 6.25,-0.25 6.25,-0.25 4.9,0.8 c 5.75,1 7.2,1.5 13,4.35 l 4.4,2.15 3.85,3.1 3.9,3.1 2.9,3.3 2.9,3.3 h 4.8 4.85 l 4.65,0.95 4.65,1 3.5,1.3 3.45,1.35 3.9,2.5 3.85,2.55 3.65,3.55 c 2.05,1.95 4.7,4.9 5.95,6.55 l 2.25,3 2.1,4.25 c 2.05,4.1 4.1,9.3 4.4,11.15 l 0.15,0.9 4.8,1.9 c 6,2.35 9.6,4.4 14.25,8.15 l 3.65,2.95 2.75,3.1 2.7,3.1 2.25,3.8 c 3.6,6.05 5.6,11.45 6.8,18.15 l 0.55,3 v 4.95 5 l 2.4,2.75 c 4,4.75 6,7.6 8.35,12.15 2.65,5.15 3.5,7.4 4.55,12.2 l 0.8,3.5 0.25,6.5 0.25,6.5 -0.55,3.55 c -1.3,8.35 -4.85,15.85 -10.15,21.5 l -1.95,2 0.8,1.9 c 0.45,1.05 1.25,4.05 1.85,6.7 l 1,4.85 -0.25,7.75 -0.25,7.75 -1.05,3.9 c -0.6,2.15 -1.95,5.85 -2.95,8.3 l -1.9,4.4 -2.3,3.45 -2.3,3.45 -4.05,4 -4.05,4 -4.8,2.8 -4.75,2.8 -3.35,1.15 -3.4,1.15 -0.9,4.8 -0.85,4.8 -1.6,4.25 -1.65,4.3 -2.4,3.65 -2.45,3.65 -4.15,4.4 -4.2,4.35 -3.6,2.5 c -6.2,4.3 -13.1,7.2 -20.55,8.65 l -2.85,0.55 -6,0.05 -5.95,0.05 -1.85,2.3 c -1.05,1.25 -3.3,3.55 -5.05,5.05 l -3.15,2.75 -3.5,1.95 -3.55,1.9 -4.6,1.65 -4.65,1.65 -4.15,0.6 -4.15,0.65 -6.1,-0.3 -6.05,-0.25 -4.4,-1.3 -4.4,-1.3 -3.6,-1.8 c -2,-1 -4.7,-2.55 -6.1,-3.45 l -2.5,-1.6 -3.05,-2.95 c -1.65,-1.6 -3.85,-3.95 -4.85,-5.15 l -1.85,-2.2 -1.1,1.45 c -0.6,0.8 -2.45,2.85 -4.05,4.55 l -2.95,3.1 -3.6,2.45 -3.55,2.45 -3.5,1.5 c -4.95,2.15 -7.9,3.05 -12.75,3.9 l -4.25,0.75 -4.75,-0.1 c -2.6,0 -5.55,-0.15 -6.5,-0.25 z M 633,709.3 c 5.75,-1.2 7.65,-1.85 11.55,-3.85 l 3.8,-2 3.3,-2.7 3.3,-2.75 2,-2.65 2.05,-2.65 1.65,-3.75 c 0.95,-2.05 1.95,-4.7 2.25,-5.95 l 0.55,-2.25 0.1,-48.5 0.15,-48.5 -1.15,-2.85 -1.1,-2.9 -2.25,-3 c -2.75,-3.6 -5.35,-5.9 -8.5,-7.5 l -2.4,-1.15 -3,-0.65 -3.05,-0.65 h -3 C 635.4,565 629.9,565.8 626.9,566.8 l -2.4,0.8 -2.95,2.15 -2.95,2.15 -2.7,3.45 c -1.45,1.85 -3.5,4.7 -4.55,6.3 l -1.85,2.85 -0.9,0.05 c -1.6,0.1 -2.35,-0.15 -3.45,-1.2 l -1.15,-1 v -1.2 -1.15 l 1.7,-1.9 c 0.95,-1.05 3.55,-4.15 5.75,-6.9 l 3.95,-4.95 -1.8,-0.45 -1.8,-0.45 -5.55,0.55 -5.5,0.6 -4,1.3 -4,1.25 -8.85,0.45 -8.85,0.45 -1.5,0.75 c -2.25,1.2 -4,3.15 -8.2,9.45 l -3.9,5.8 -1,0.3 -1,0.35 -0.8,-0.65 c -0.4,-0.35 -0.95,-1.2 -1.2,-1.8 l -0.45,-1.2 1.05,-2.2 1.05,-2.2 3.7,-4.35 c 2.05,-2.35 3.7,-4.55 3.7,-4.85 v -0.5 l -3.4,0.3 -3.4,0.35 -2.95,1 -2.9,1 -1.8,1.35 c -1,0.75 -3.5,3 -5.55,4.9 -2.05,1.95 -5.1,4.6 -6.75,5.85 l -3,2.35 -2.4,1 -2.45,1.05 h -9.85 -9.85 l -1,0.7 -1,0.75 -1.6,3.4 -1.55,3.4 -0.85,4.25 -0.85,4.25 0.3,5.25 0.3,5.25 0.8,2.85 c 0.95,3.55 3,8.25 5.2,12.05 l 1.65,2.9 3.85,3.9 3.8,3.9 2.2,1.4 c 1.2,0.75 3.6,1.9 5.35,2.55 l 3.2,1.2 h 3.6 3.6 l 3.3,-1.95 3.3,-1.95 2.25,-2.45 2.25,-2.4 1.45,-3.7 1.4,-3.7 1.65,-1.85 1.7,-1.85 3.05,-1.65 3.05,-1.6 2.85,-0.7 c 1.6,-0.35 4.95,-0.8 7.5,-1 l 4.6,-0.35 1.2,1.15 1.25,1.15 v 1.55 c 0,1.35 1.15,6.35 3.05,13.45 l 0.5,1.85 h 5.1 5.1 l 1.9,0.55 1.9,0.5 1.9,1.7 1.85,1.7 1.85,3.65 c 1.05,2 2.45,4.3 3.15,5.1 l 1.25,1.45 2.35,-0.3 c 1.3,-0.15 3.8,-0.75 5.6,-1.3 l 3.25,-1 2.4,-1.5 2.35,-1.55 1,-1.6 1,-1.65 2.55,-7.7 2.6,-7.7 -0.3,-4.9 -0.25,-4.95 -2.35,-5 -2.35,-5.05 0.2,-2.75 0.25,-2.75 1.45,-2.05 c 0.8,-1.15 2.05,-2.5 2.85,-3.1 l 1.35,-1 h 1.75 1.8 l 1.35,1.35 1.35,1.4 -2.15,1.75 -2.15,1.8 -0.7,1.45 -0.75,1.4 v 1.15 1.15 l 1.75,3.65 1.8,3.65 0.45,2.55 0.5,2.55 v 4.85 4.9 l -1.95,6.5 c -2.35,7.8 -3.45,10.45 -5.8,13.6 l -1.75,2.4 -2.15,1 c -1.15,0.5 -3.55,1.5 -5.35,2.1 -1.8,0.6 -4.5,1.75 -6.05,2.55 l -2.8,1.4 -1.3,1.5 -1.25,1.5 -0.85,2.4 c -0.5,1.3 -1.75,4.6 -2.8,7.3 l -1.95,4.9 -0.7,4.5 -0.75,4.5 -1.3,2.3 -1.35,2.3 0.65,2.05 0.65,2.05 3.55,3.55 3.5,3.55 3.75,1.85 3.75,1.8 4.75,0.95 4.75,0.95 3,0.05 3,0.05 z m 84,-0.55 c 1.5,-0.45 4.55,-1.75 6.75,-2.9 l 4,-2.05 3,-3.05 3.05,-3 1.75,-3 1.75,-3 1.75,0.05 c 0.95,0 3.6,0.3 5.95,0.6 l 4.25,0.5 4.25,-0.45 c 2.35,-0.25 5.6,-0.85 7.2,-1.25 l 3,-0.8 3.5,-1.65 3.55,-1.7 3.5,-2.65 3.5,-2.65 3.4,-4.25 3.4,-4.25 1.45,-3.1 c 0.8,-1.7 1.95,-4.5 2.55,-6.25 l 1.1,-3.15 0.05,-6.45 0.05,-6.45 1,-0.4 c 0.55,-0.2 1.9,-0.4 3,-0.4 1.15,-0.05 3.4,-0.4 5,-0.8 l 3,-0.75 3.75,-1.85 3.75,-1.9 4.55,-4.5 4.55,-4.5 1.75,-3.25 c 0.95,-1.8 2.35,-4.9 3.1,-6.85 l 1.4,-3.65 0.65,-3.85 0.7,-3.9 v -4 -4 l -0.65,-3.8 -0.7,-3.8 -1.85,-4.45 c -1,-2.45 -1.95,-4.95 -2.1,-5.5 l -0.25,-1.05 1.7,-1.05 c 0.9,-0.55 2.6,-2 3.75,-3.2 l 2.1,-2.15 1.8,-3 1.8,-3 1.25,-4 1.3,-4 0.25,-5.5 0.25,-5.5 -1.05,-5.25 -1.1,-5.25 -2.25,-4.5 -2.2,-4.55 -2.8,-3.4 -2.75,-3.35 -2.75,-2.1 -2.75,-2.1 0.2,-1.25 c 0.15,-0.7 0.5,-2.6 0.8,-4.25 l 0.6,-3 -0.35,-3.75 -0.3,-3.75 -0.75,-2.75 c -0.45,-1.5 -1.35,-4.1 -2,-5.75 l -1.25,-3 -2.75,-4.15 -2.8,-4.15 -3.65,-3.4 -3.65,-3.4 -3.9,-2.05 c -2.15,-1.1 -5.3,-2.5 -7,-3.05 L 787.05,474 H 785 782.95 l -0.9,-0.5 -0.95,-0.45 -0.3,-2.9 c -0.5,-4.55 -1.3,-7.6 -3.1,-11.85 l -1.65,-3.95 -2.9,-3.7 -2.85,-3.75 -3.5,-3 -3.55,-3 -4,-1.9 -4,-1.95 -4.25,-1.05 -4.25,-1 -3.5,0.05 c -1.9,0 -4.85,0.2 -6.5,0.4 -1.65,0.25 -3.2,0.3 -3.5,0.2 -0.25,-0.1 -1.05,-1 -1.75,-2.05 -1.85,-2.75 -6.35,-7.4 -9.65,-9.95 l -2.9,-2.25 -3.35,-1.65 -3.35,-1.7 -3.75,-1.05 -3.75,-1.05 -4.75,-0.3 -4.75,-0.25 -5,1.05 -5,1 -3.6,1.85 -3.65,1.85 -4,4.15 -4,4.2 0.2,58.6 c 0.1,32.25 0.25,59.35 0.25,60.15 0.05,0.85 -0.1,7.9 -0.3,15.75 l -0.4,14.25 0.25,52.75 0.25,52.75 1.7,3.9 c 2.8,6.55 6.15,10.9 11.7,15.2 l 2.85,2.2 3.3,1.5 3.25,1.5 3.85,0.95 3.85,1 6.75,-0.2 6.75,-0.2 z m -127.15,-17.3 3.6,-1.1 0.75,-1.9 0.8,-1.95 0.55,-4.9 0.5,-4.85 1.55,-3 c 0.8,-1.65 2.3,-4.4 3.25,-6.15 l 1.75,-3.15 -0.3,-2.6 -0.35,-2.6 -1.95,-4 -1.95,-4 -2.2,-2.5 -2.2,-2.5 -6.3,-0.15 -6.25,-0.2 -1.5,-1.55 -1.5,-1.6 -0.85,-4 c -1,-4.65 -2.2,-7.7 -3.7,-9.2 l -1.05,-1.05 h -2.9 -2.9 l -2.55,0.75 -2.55,0.75 -1.7,1.9 -1.7,1.9 -1.7,4.2 -1.7,4.25 -3.05,3 -3,3 -3,1.55 -3,1.55 -0.15,2.75 -0.15,2.75 0.75,3.7 0.75,3.7 2.75,5.55 2.75,5.55 3.6,3.85 3.6,3.9 2.9,1.95 c 1.6,1.05 4.45,2.7 6.3,3.65 l 3.4,1.7 3,0.8 c 4.5,1.15 4.65,1.2 9.5,1.25 l 4.5,0.05 z m -65.1,-110.2 h 7 l 2.5,-1.45 2.5,-1.5 2.75,-2.55 c 5.8,-5.35 11.9,-9.85 15.1,-11.1 l 2.15,-0.85 9,-0.05 c 4.95,-0.05 12.85,-0.25 17.5,-0.45 l 8.5,-0.4 5.25,-1.15 c 2.9,-0.65 6.65,-1.3 8.3,-1.5 l 3.1,-0.35 -2.15,-4.05 -2.2,-4.1 -1.8,-5 -1.8,-5 -1.6,-1.65 c -2.4,-2.5 -7.05,-5.7 -12.05,-8.3 l -4.5,-2.3 -1.6,-0.3 -1.6,-0.3 -3.4,1 c -1.9,0.55 -5.45,1.7 -7.95,2.6 l -4.5,1.65 -2.35,-0.05 h -2.4 l -3.85,-1.85 -3.9,-1.8 -2.5,-1.9 c -1.35,-1.05 -2.95,-2.15 -3.55,-2.45 l -1.05,-0.55 -2.6,1.25 -2.65,1.2 -1.95,0.3 -1.95,0.35 -2.9,-1.05 c -1.55,-0.6 -4.3,-1.3 -6.1,-1.55 l -3.25,-0.55 h -3.85 -3.85 l -1.3,0.5 -1.3,0.5 -2.55,2.35 -2.55,2.4 L 505,534 c -1,1.5 -2.45,3.9 -3.15,5.3 l -1.3,2.55 -1.05,3.95 -1.05,3.95 -0.3,4.5 -0.3,4.55 0.6,3.45 c 0.7,4.2 2.1,8.05 4.1,11.6 l 1.5,2.65 2.6,2.8 2.55,2.8 4.3,-0.4 4.25,-0.45 z m 112.5,-22.15 10.05,-0.35 3.35,-1.65 3.35,-1.65 2.45,-2.4 2.4,-2.35 1.6,-2.75 1.55,-2.7 0.7,-2.5 0.7,-2.5 0.15,-43 c 0.05,-23.65 0.1,-48.45 0.05,-55.1 l -0.1,-12.1 -3.95,-4.15 -3.95,-4.15 -2.85,-1.7 -2.85,-1.75 -4.05,-1.15 -4.1,-1.2 -5.3,-0.05 h -5.3 l -4.4,1.1 -4.35,1.1 -3.35,1.5 -3.3,1.45 -2.75,2.05 c -1.5,1.1 -3.75,2.95 -4.9,4.1 l -2.2,2.05 -1.2,2.35 -1.2,2.35 v 1.65 1.65 l 1.05,2.75 c 0.55,1.5 1.5,4 2.1,5.5 l 1.05,2.75 -0.1,9.15 -0.15,9.15 0.6,2.05 0.55,2.05 2.6,2.55 2.6,2.55 6.15,3.45 6.2,3.5 1.05,-1.3 c 0.55,-0.75 1.8,-2.25 2.7,-3.35 l 1.65,-2.05 h 1.65 1.65 l 0.9,1 0.9,0.95 -0.9,1.4 c -0.5,0.75 -1.9,2.55 -3.05,4 l -2.15,2.65 0.25,1.65 c 0.15,0.85 0.75,3.95 1.3,6.8 l 1.05,5.2 -0.3,7.05 -0.25,7.05 -0.8,2.25 -0.8,2.25 -1.9,2.5 -1.85,2.45 -2.85,1.6 c -4.2,2.35 -10.25,7 -13.85,10.55 l -3.15,3.2 0.2,2.35 c 0.15,1.3 0.75,3.95 1.3,5.9 l 1.1,3.55 1.95,3.05 2,3.05 2,1.35 c 1.15,0.7 2.75,1.5 3.65,1.75 l 1.65,0.4 3,-0.25 c 1.65,-0.15 7.5,-0.4 13,-0.6 z m -29.5,-29.85 3.55,-3.5 5,-3.1 5,-3.05 2.3,-2.5 2.3,-2.45 0.35,-3.45 0.4,-3.45 -0.35,-5.75 -0.3,-5.75 -0.55,-2 c -0.3,-1.1 -1,-2.95 -1.55,-4.1 l -0.95,-2.05 -3.6,-1.9 c -2,-1 -5.65,-3.05 -8.15,-4.5 l -4.6,-2.65 -2,-2.3 -2,-2.3 -0.8,-2.3 -0.8,-2.35 v -10.3 -10.3 l -1.5,-4.15 c -0.85,-2.25 -1.95,-4.95 -2.5,-6 l -0.95,-1.9 -2.15,-0.9 -2.15,-0.85 -3.25,0.05 c -1.8,0 -4.45,0.25 -5.9,0.5 l -2.65,0.55 -3.4,1.4 -3.4,1.45 -3.6,2.4 -3.6,2.4 -2.55,2.8 c -1.4,1.55 -3.55,4.3 -4.75,6.1 l -2.2,3.3 -1.2,3.45 -1.25,3.45 v 3.75 3.75 l 1.7,1.15 c 0.95,0.65 2.6,2 3.75,3.05 l 2.05,1.9 v 1.25 1.25 l -1.05,1.35 -1,1.3 h -0.8 -0.8 l -3.6,-3.45 -3.55,-3.45 -2.2,-0.35 -2.25,-0.3 -3.65,0.75 -3.65,0.75 -3.55,1.9 -3.55,1.9 -4.1,3.85 -4.1,3.85 -2.65,3.85 -2.65,3.85 -1.4,3.35 -1.4,3.3 -0.8,4.45 c -0.9,5.2 -0.95,7.35 -0.2,10.7 l 0.5,2.45 3.65,-0.25 3.65,-0.3 4.05,0.6 4.05,0.6 3.05,1.25 3.1,1.25 0.95,-0.3 c 0.5,-0.2 1.3,-0.65 1.7,-1.05 l 0.75,-0.75 v -1.3 -1.3 l 0.85,-0.95 0.8,-0.9 h 1.65 1.65 l 2.85,3.25 2.9,3.3 3.45,2.3 3.4,2.35 3.1,0.15 3.1,0.15 6.25,-2.4 6.25,-2.4 -0.1,-0.45 c -0.3,-1.45 -2.85,-7.45 -4.4,-10.4 l -1.8,-3.35 0.55,-1 c 0.25,-0.5 1,-1.3 1.6,-1.7 l 1.1,-0.8 h 1.4 c 0.75,0 1.95,0.25 2.65,0.6 l 1.25,0.55 0.25,1.05 c 0.15,0.6 0.5,2.5 0.8,4.3 l 0.55,3.25 1.5,3.9 1.5,3.85 4.5,2.4 c 2.5,1.3 7,4 10.1,5.95 l 5.55,3.65 0.5,-0.9 c 0.25,-0.45 2.1,-2.45 4,-4.35 z"
           id="path14"
           style="fill:#1b1b19" />
        <path
           d="m 342.3,555.65 -0.3,-0.3 v -9.9 -9.9 l 0.4,-0.15 c 0.2,-0.1 4.8,-0.1 10.25,0 l 9.85,0.2 -0.1,10.05 -0.15,10.1 -9.8,0.1 -9.85,0.1 z"
           id="path15"
           style="fill:#1b1b19" />
        <path
           d="m 385.9,546.05 c -0.1,-5.4 -0.1,-10.05 0,-10.3 l 0.1,-0.5 9.9,0.1 9.85,0.1 0.15,10.15 0.1,10.15 -9.95,0.05 -10,0.05 z"
           id="path16"
           style="fill:#1b1b19" />
        <path
           d="m 430.1,555.4 -0.6,-0.6 v -9.1 -9.1 l 0.3,-0.75 0.25,-0.75 9.85,0.2 c 5.4,0.1 10,0.2 10.25,0.2 h 0.35 l -0.1,10.15 -0.15,10.1 -9.75,0.15 -9.8,0.1 z"
           id="path17"
           style="fill:#1b1b19" />
        <path
           d="m 327.95,522.55 -1.45,-1.45 v -63 -63 l 1.55,-1.55 1.55,-1.55 h 66.5 66.5 l 1.6,1.65 1.6,1.6 -0.15,63 -0.15,63 -1.5,1.35 -1.45,1.35 L 396,524 h -66.55 z m 35.45,-35.3 c 1.2,-3.3 2.25,-6.3 2.35,-6.6 l 0.2,-0.65 h 14.25 14.25 l 0.4,0.65 c 0.2,0.3 1.45,3.3 2.7,6.6 l 2.3,6 6.9,0.15 c 3.85,0.05 7.25,0 7.6,-0.1 l 0.65,-0.25 -1.05,-2.65 c -0.6,-1.45 -2.3,-5.9 -3.8,-9.9 -5.55,-14.75 -19.4,-50.75 -21.15,-54.9 l -0.5,-1.1 -8.3,0.1 -8.3,0.15 -1.45,3.75 c -3.75,9.6 -4.65,11.95 -8.4,22 -2.15,5.9 -5.15,13.9 -6.55,17.75 -1.45,3.85 -4.05,10.95 -5.8,15.75 l -3.15,8.7 0.25,0.4 0.3,0.45 7.05,-0.15 7.1,-0.15 z m 73.8,4.9 c 0,-0.65 -0.05,-16.1 -0.1,-34.4 L 437,424.5 h -7.5 -7.5 v 34.5 34.55 l 7.65,-0.15 7.6,-0.15 z"
           id="path18"
           style="fill:#1b1b19" />
        <path
           d="m 370.45,467.95 -0.55,-0.3 1.75,-4.7 c 0.95,-2.6 2.9,-7.85 4.3,-11.7 1.45,-3.85 2.95,-7.95 3.4,-9.15 l 0.8,-2.15 0.35,0.4 c 0.2,0.2 1.1,2.65 2,5.4 0.9,2.75 2.7,7.7 4,11 1.35,3.3 2.75,7.2 3.15,8.65 l 0.8,2.6 h -0.6 c -0.35,0 -4.7,0.05 -9.75,0.15 l -9.15,0.15 z"
           id="path19"
           style="fill:#1b1b19" />
        <path
           d="m 292.45,498.15 c -0.05,-3.25 0,-7.7 0.05,-9.9 l 0.1,-4 0.3,-0.25 c 0.2,-0.15 4.95,-0.2 10.55,-0.1 l 10.15,0.15 -0.3,1.55 c -0.15,0.85 -0.3,5.3 -0.3,9.95 V 504 H 302.75 292.5 Z"
           id="path20"
           style="fill:#1b1b19" />
        <path
           d="m 478.35,503.65 -0.35,-0.3 v -9.05 -9.05 l 0.45,-0.7 0.45,-0.65 9.65,0.05 9.65,0.1 0.35,0.55 0.35,0.6 -0.1,5.75 c -0.1,3.2 -0.2,7.45 -0.25,9.45 l -0.05,3.6 h -9.9 -9.95 z"
           id="path21"
           style="fill:#1b1b19" />
        <path
           d="m 292.85,463.7 -0.35,-0.35 v -9.95 -9.95 l 10.15,0.15 10.1,0.15 0.15,9.9 0.1,9.85 h -9.2 c -5.05,0 -9.55,0.1 -9.9,0.25 l -0.7,0.3 z"
           id="path22"
           style="fill:#1b1b19" />
        <path
           d="M 478.35,463.65 478,463.35 V 454 444.6 l 0.65,-0.5 0.6,-0.55 9.5,0.25 9.5,0.2 0.15,10 0.1,10 h -9.9 -9.95 z"
           id="path23"
           style="fill:#1b1b19" />
        <path
           d="M 292.5,414.75 V 404.5 h 10.2 10.25 l 0.15,0.4 c 0.1,0.2 0.1,4.8 0,10.25 l -0.2,9.85 h -10.2 -10.2 z"
           id="path24"
           style="fill:#1b1b19" />
        <path
           d="m 478.55,424.1 -0.5,-0.9 0.15,-3.7 c 0.1,-2.05 0.2,-6.3 0.25,-9.35 l 0.05,-5.65 h 10 10 l 0.05,3.65 c 0.05,6.9 -0.15,16.05 -0.35,16.45 l -0.25,0.4 h -9.45 -9.45 z"
           id="path25"
           style="fill:#1b1b19" />
        <path
           d="m 342.2,379.8 c -0.15,-0.35 -0.15,-4.85 -0.1,-10.05 l 0.15,-9.5 10.15,-0.15 10.1,-0.1 -0.1,10.1 -0.15,10.15 -9.9,0.05 -9.95,0.05 z"
           id="path26"
           style="fill:#1b1b19" />
        <path
           d="m 386.2,380.05 c -0.1,-0.1 -0.2,-4.7 -0.2,-10.15 V 360 h 10 10 l 0.05,3.65 c 0.05,1.95 0.15,6.1 0.25,9.1 0.15,3.05 0.1,5.95 0,6.5 l -0.25,1 h -9.8 c -5.4,0 -9.9,-0.1 -10.05,-0.2 z"
           id="path27"
           style="fill:#1b1b19" />
        <path
           d="M 430.85,380.1 430,379.95 v -10 -9.95 l 10.15,0.1 10.1,0.15 v 9.95 9.9 l -9.3,0.1 c -5.1,0 -9.65,0 -10.1,-0.1 z"
           id="path28"
           style="fill:#1b1b19" />
      </g>
      <g
         id="g55"
         transform="translate(5.95001,42.674999)"
         style="filter:url(#filter161)">
        <path
           d="m 617.5,710.45 -4.75,-0.95 -3.65,-1.8 -3.65,-1.8 -3.15,-2.95 -3.2,-2.95 -1.05,-2.25 -1.05,-2.25 v -2.05 -2 l 1.3,-2.2 1.25,-2.2 0.75,-4.5 0.7,-4.5 1.95,-4.9 c 1.05,-2.7 2.3,-6 2.8,-7.3 l 0.85,-2.4 1.25,-1.5 1.3,-1.5 2.8,-1.4 c 1.55,-0.8 4.25,-1.95 6.05,-2.55 1.8,-0.6 4.2,-1.6 5.35,-2.1 l 2.15,-1 1.75,-2.4 c 2.35,-3.15 3.45,-5.8 5.8,-13.6 l 1.95,-6.5 v -3.4 -3.35 l -0.5,-2.55 -0.45,-2.55 -1.8,-3.65 -1.75,-3.65 v -2.65 -2.65 l 0.55,-1.1 c 0.3,-0.6 1.25,-1.8 2.1,-2.7 l 1.5,-1.6 -0.8,-0.35 -0.85,-0.3 -1.25,0.8 c -0.7,0.45 -1.95,1.75 -2.75,2.85 l -1.45,2 -0.3,1.5 -0.35,1.45 2.4,5.1 2.35,5.1 0.25,6.3 0.25,6.35 -2.6,7.8 -2.6,7.8 -1.15,1.65 -1.1,1.65 -2.6,1.6 -2.65,1.55 -3.9,1.05 -3.85,1.05 h -3 l -2.95,-0.05 -1.55,-2.1 c -0.85,-1.15 -2.15,-3.4 -2.95,-5 l -1.45,-2.9 -1.85,-1.7 -1.9,-1.7 -1.9,-0.5 -1.9,-0.55 h -5.1 -5.1 l -0.5,-1.85 c -1.9,-7.1 -3.05,-12.1 -3.05,-13.45 v -1.55 l -1.2,-1.1 -1.2,-1.15 -2.95,0.35 c -1.6,0.15 -4.15,0.55 -5.65,0.85 l -2.75,0.55 -3.35,1.75 -3.4,1.7 -1.65,1.9 -1.7,1.85 -1.4,3.7 -1.45,3.7 -2.25,2.4 -2.25,2.45 -3.3,1.95 -3.3,1.95 h -5.1 -5.1 l -3.2,-1.2 c -1.75,-0.65 -4.15,-1.8 -5.35,-2.55 l -2.2,-1.4 -3.8,-3.9 -3.85,-3.9 -1.65,-2.9 c -2.2,-3.75 -4.25,-8.5 -5.2,-12.05 l -0.8,-2.85 -0.3,-6.75 -0.3,-6.8 0.85,-4.2 0.85,-4.25 1.55,-3.4 1.6,-3.4 1,-0.75 1,-0.7 h 9.85 9.85 l 2.45,-1.05 2.4,-1 3,-2.35 c 1.65,-1.25 4.7,-3.9 6.75,-5.85 2.05,-1.9 4.55,-4.15 5.55,-4.9 l 1.8,-1.35 2.95,-1.05 2.95,-1 4.9,-0.3 4.85,-0.3 v 2 2.05 l -3.7,4.3 c -2,2.35 -4,5 -4.45,5.9 l -0.8,1.6 0.25,0.4 c 0.55,0.85 1.05,0.25 4.7,-5.2 4.05,-6.05 5.8,-8 8.05,-9.2 l 1.5,-0.75 8.85,-0.45 8.85,-0.45 4.15,-1.3 4.1,-1.3 4.15,-0.45 c 4.75,-0.55 9.55,-0.65 11.8,-0.2 l 1.55,0.35 v 1.5 1.5 l -3.8,4.8 c -2.15,2.65 -4.65,5.65 -5.65,6.7 l -1.75,1.85 1.05,1.05 1.05,1.1 1.9,-2.95 c 1.05,-1.65 3.15,-4.5 4.6,-6.35 l 2.7,-3.45 2.95,-2.15 2.95,-2.15 2.4,-0.8 c 1.3,-0.45 3.95,-1 5.85,-1.3 l 3.5,-0.5 4.5,0.05 h 4.5 l 3.05,0.65 3,0.65 2.5,1.2 2.45,1.2 3.35,3.4 3.35,3.4 1.65,3.3 1.6,3.3 0.3,5.05 0.35,5.05 -0.2,45.25 -0.15,45.25 -0.55,2.75 -0.55,2.75 -1.7,3.7 -1.7,3.75 -2.05,2.65 -2,2.65 -3.3,2.75 -3.3,2.7 -3.8,2 c -3.9,2 -5.8,2.65 -11.55,3.85 l -3.25,0.7 -4.5,-0.05 -4.5,-0.05 z"
           id="path29"
           style="fill:#ffffff" />
        <path
           d="m 574.75,693.7 c -0.55,-0.15 -2.35,-0.6 -4,-1 l -3,-0.8 -3.4,-1.7 c -1.85,-0.95 -4.7,-2.6 -6.3,-3.65 l -2.9,-1.95 -3.6,-3.9 -3.6,-3.85 -2.75,-5.55 -2.75,-5.55 -0.75,-3.7 -0.75,-3.65 0.15,-4.3 0.15,-4.25 3,-1.55 3,-1.55 3,-3 3.05,-3 1.7,-4.25 1.7,-4.2 1.7,-1.9 1.7,-1.9 2.55,-0.75 2.55,-0.75 h 4.4 4.4 l 1.05,1.05 c 1.5,1.5 2.7,4.55 3.7,9.2 l 0.85,4 1.5,1.6 1.5,1.55 6.25,0.2 6.3,0.15 2.2,2.5 2.2,2.5 2.05,4.15 2,4.1 0.25,3.95 0.3,3.95 -1.8,3.2 c -0.95,1.7 -2.45,4.5 -3.25,6.15 l -1.55,3 -0.5,4.85 -0.55,4.9 -0.8,1.95 -0.75,1.9 -3.6,1.1 -3.6,1.05 -6,-0.05 c -3.3,-0.05 -6.45,-0.15 -7,-0.25 z"
           id="path30"
           style="fill:#ffffff" />
        <path
           d="m 701.75,678.05 c -0.8,-0.2 -2.2,-0.75 -3.05,-1.2 l -1.6,-0.8 -1.35,-1.65 c -0.8,-0.9 -1.85,-2.65 -2.4,-3.85 l -0.95,-2.2 0.2,-5.05 0.2,-5.05 0.9,-1.75 c 1.3,-2.45 2.75,-3.95 5,-5.1 l 2,-1 5.7,0.2 5.75,0.2 4.55,-3.35 c 2.5,-1.9 6.05,-4.25 7.85,-5.25 l 3.35,-1.8 0.9,-2.05 0.9,-2 1.75,-0.7 1.7,-0.75 6.3,-0.25 6.35,-0.3 1.6,0.85 1.6,0.8 0.8,1.65 0.85,1.6 0.25,3.3 0.2,3.25 -0.75,1.5 c -0.4,0.8 -1.45,2.15 -2.35,2.95 l -1.55,1.5 h -4.6 -4.6 l -1.6,-1.15 -1.65,-1.15 -2.4,1.3 c -2.05,1.1 -6.75,4.5 -11.2,8.05 l -1.3,1 0.25,3.35 0.3,3.35 -0.65,2.15 -0.6,2.2 -1.85,2.45 -1.85,2.45 -2.1,1.15 -2.1,1.2 -3.65,0.15 -3.6,0.2 z"
           id="path31"
           style="fill:#ffffff" />
        <path
           d="m 739.25,632.55 c -1.95,-0.5 -3.55,-1.35 -5.9,-3.2 l -1.9,-1.45 -0.95,-1.95 -1,-1.9 v -3.75 -3.8 l 0.8,-2 0.8,-2 -2.05,-3.45 -2,-3.4 -3.9,-4.4 c -2.15,-2.45 -5.4,-5.75 -7.25,-7.35 l -3.3,-3 -1.15,0.6 -1.1,0.6 -3,-0.25 -3,-0.25 -1.3,-1 -1.3,-0.95 -0.65,-1.95 -0.7,-1.95 -0.2,-4.25 -0.15,-4.25 -1.5,-1.25 c -1.85,-1.6 -7.85,-4.55 -12.05,-6.05 l -3.25,-1.1 -1.85,0.35 -1.85,0.35 -3.4,3.2 -3.4,3.25 h -1.6 -1.6 l -0.55,-0.95 -0.5,-1 v -10.9 -10.9 l 0.3,-1.85 0.35,-1.9 h 1.75 1.75 l 1.65,1.05 1.7,1 1,1.45 c 0.55,0.8 2.45,2.7 4.25,4.25 l 3.2,2.8 4.9,1.2 4.9,1.25 6.35,3.15 6.3,3.2 2.45,-0.9 c 1.3,-0.5 2.8,-1.15 3.25,-1.45 0.5,-0.25 3.2,-1.4 6,-2.55 l 5.15,-2.05 2,0.35 c 1.1,0.2 6.95,0.45 13,0.55 l 11,0.25 1.75,-1.05 c 0.95,-0.55 3.35,-1.8 5.25,-2.7 l 3.5,-1.7 5.25,-6.1 c 2.9,-3.35 5.75,-6.75 6.4,-7.5 l 1.1,-1.35 -0.3,-3.05 -0.35,-3.05 -5.3,-2.1 c -2.9,-1.15 -8.35,-3.5 -12.05,-5.2 l -6.75,-3.15 -1.8,1.65 -1.8,1.6 -2.3,0.9 -2.35,0.9 -3.35,-0.3 -3.4,-0.25 -2.25,-1 -2.25,-0.95 -1.45,-1.45 c -0.75,-0.8 -1.9,-2.35 -2.5,-3.45 l -1.05,-2 v -5.5 -5.5 l 1.15,-1.85 c 0.6,-1 2,-2.6 3.05,-3.55 l 1.9,-1.75 1.95,-0.65 1.95,-0.7 h 4 4 l 2.6,1.35 2.55,1.35 1,1.4 c 0.55,0.8 1.35,2.15 1.8,3.05 l 0.85,1.65 0.35,2.8 0.35,2.85 1.5,0.3 c 0.85,0.2 2.65,0.95 4.05,1.65 1.45,0.7 5.4,2.4 8.8,3.8 3.45,1.35 6.95,2.8 7.85,3.25 l 1.6,0.85 1.95,-1.7 2,-1.7 1.95,-0.55 1.9,-0.6 h 4.2 4.15 l 2.15,1.05 2.15,1.05 2,2.25 2,2.3 0.75,2.5 0.75,2.55 v 2.85 2.9 l -1,2.65 -1,2.7 -2.1,2.05 -2.15,2.1 -2.2,0.8 -2.2,0.75 h -3.05 -3.05 l -1.5,-0.45 -1.55,-0.4 -3.7,4.45 c -2,2.45 -5.2,6.25 -7.05,8.4 l -3.4,3.95 -0.35,1.4 c -0.2,0.75 -0.65,2 -1.05,2.75 l -0.65,1.4 -1.55,0.8 -1.55,0.75 -4.55,-0.25 c -2.55,-0.15 -10.45,-0.4 -17.55,-0.6 l -12.95,-0.3 -4.7,1.9 -4.7,1.9 0.3,1.05 c 0.15,0.55 0.55,2.2 0.85,3.65 l 0.55,2.6 4.8,4.25 4.85,4.25 3.7,4.25 3.7,4.25 2.2,3.5 2.2,3.5 h 3.3 3.3 l 2.1,1.05 2.15,1 1.8,2.05 1.85,2 0.5,1.45 0.5,1.45 h 8.7 8.7 l 0.8,-1.3 0.85,-1.25 1.4,-0.75 1.4,-0.7 h 3.05 3.05 l 2,1.05 2.05,1 0.7,1.7 0.7,1.7 v 2.95 2.9 l -0.8,2.35 -0.8,2.3 -1.65,1.05 -1.6,1 h -3.6 -3.6 l -1.4,-0.7 -1.4,-0.75 -0.85,-1.25 -0.8,-1.3 h -8.25 -8.25 l -0.55,1.4 -0.5,1.35 -1.6,1.65 c -0.9,0.95 -2.2,2 -2.95,2.4 l -1.35,0.7 -4.4,-0.05 c -2.4,-0.05 -5.05,-0.2 -5.9,-0.4 z"
           id="path32"
           style="fill:#ffffff" />
        <path
           d="m 505.45,581.15 c -2.95,-3.15 -4.8,-6.05 -6.5,-10.2 l -1.35,-3.35 -0.65,-3.8 -0.6,-3.85 0.3,-5.85 0.3,-5.85 1.05,-3.95 1.05,-3.95 1.3,-2.55 c 0.7,-1.4 2.15,-3.8 3.15,-5.3 l 1.85,-2.75 2.55,-2.4 2.55,-2.35 1.3,-0.5 1.3,-0.5 h 5.35 5.35 l 3.25,0.55 c 1.8,0.25 4.4,0.9 5.75,1.4 l 2.5,0.95 1.75,-0.65 c 0.95,-0.35 2.6,-1 3.6,-1.45 l 1.85,-0.8 h 1.3 1.3 l 1.1,0.6 c 0.6,0.3 2.25,1.4 3.6,2.45 l 2.5,1.85 3.75,1.8 3.7,1.8 h 1.1 c 0.65,0 3.1,-0.7 5.55,-1.55 2.4,-0.85 5.85,-2 7.65,-2.55 l 3.25,-0.95 3.05,0.15 3.05,0.2 4.7,2.4 c 5.2,2.65 9.85,5.8 12.3,8.4 l 1.6,1.65 1.8,5 1.8,5 2.25,4.2 2.2,4.15 v 1.4 1.4 l -3.1,0.35 c -1.75,0.2 -5.5,0.85 -8.4,1.5 l -5.25,1.15 -8.5,0.4 c -4.65,0.2 -12.55,0.45 -17.5,0.45 l -9,0.1 -2.15,0.8 c -3.15,1.2 -9.65,5.95 -14.85,10.9 l -2.5,2.4 -3,1.8 -3,1.8 -6.75,-0.1 -6.75,-0.15 -5.75,0.4 -5.75,0.45 z"
           id="path33"
           style="fill:#ffffff" />
        <path
           d="m 618.1,561.05 c -0.9,-0.25 -2.5,-1.05 -3.65,-1.75 l -2,-1.35 -2,-3.05 -1.95,-3.05 -1.05,-3.3 -1.05,-3.3 -0.25,-4.1 -0.25,-4.1 3.15,-3.2 c 3.6,-3.55 9.65,-8.2 13.85,-10.55 l 2.85,-1.6 1.85,-2.45 1.9,-2.5 0.8,-2.25 0.75,-2.25 0.3,-5.75 0.25,-5.75 -1.05,-4.9 c -0.55,-2.7 -1.15,-6.3 -1.35,-8 l -0.3,-3.15 2.55,-3.15 2.55,-3.2 -0.3,-0.45 -0.3,-0.45 -0.75,0.65 c -0.45,0.35 -1.7,1.85 -2.75,3.25 l -1.95,2.65 h -1.85 -1.85 l -6.5,-3.75 -6.5,-3.75 -2.1,-2.3 -2.15,-2.3 -0.5,-2 -0.55,-2 0.1,-9.05 0.1,-9.1 -1.05,-2.75 c -0.55,-1.5 -1.5,-4 -2.05,-5.5 L 602,438.75 v -3.15 -3.15 l 1.2,-2.35 1.2,-2.35 2.2,-2.05 c 1.15,-1.15 3.4,-3 4.9,-4.1 l 2.75,-2.05 3.3,-1.45 3.35,-1.5 4.4,-1.15 4.45,-1.1 h 6.75 l 6.75,0.05 4.1,1.2 4.05,1.2 2.85,1.75 2.85,1.7 3.95,4.15 3.95,4.15 0.1,12.1 c 0.05,6.65 0.05,32.15 -0.05,56.6 l -0.15,44.5 -0.7,2.5 -0.7,2.5 -1.55,2.7 -1.6,2.75 -2.4,2.35 -2.45,2.4 -3.35,1.65 -3.35,1.65 -10.05,0.35 c -5.5,0.2 -12,0.5 -14.5,0.6 l -4.5,0.25 z"
           id="path34"
           style="fill:#ffffff" />
        <path
           d="m 596.2,532.35 c -3.1,-1.95 -7.6,-4.65 -10.1,-5.95 l -4.5,-2.4 -1.5,-3.85 -1.5,-3.9 -0.55,-3.25 c -0.3,-1.8 -0.65,-3.7 -0.8,-4.3 l -0.25,-1.05 -1.2,-0.55 -1.25,-0.55 -1.1,0.9 -1.15,0.9 1.35,2.7 c 0.75,1.5 1.95,4.15 2.65,5.95 l 1.35,3.25 0.05,2 0.05,2 -6.25,2.4 -6.25,2.35 -4.55,-0.1 -4.6,-0.15 -3.45,-2.35 -3.45,-2.35 -2.9,-3.3 -2.9,-3.3 -0.95,0.85 -0.95,0.85 v 1.3 c 0,1.6 -0.4,2.2 -1.85,3 l -1.1,0.55 h -1.8 -1.75 l -3,-1.2 -2.95,-1.2 -3.65,-0.6 -3.6,-0.55 -4.1,0.35 -4.1,0.35 -0.55,-2.6 -0.55,-2.6 v -3.4 -3.4 l 0.75,-4.4 0.8,-4.45 1.4,-3.3 1.4,-3.35 2.65,-3.85 2.65,-3.85 4.1,-3.85 4.1,-3.85 3.55,-1.9 3.55,-1.9 3.4,-0.7 3.4,-0.75 h 2.5 2.5 l 1.75,0.5 1.7,0.5 2.85,2.8 2.85,2.8 0.55,-0.3 c 0.3,-0.2 0.55,-0.65 0.55,-1.05 v -0.7 l -3.45,-2.65 -3.5,-2.65 V 467 l -0.05,-5.25 1.25,-3.45 1.2,-3.45 2.2,-3.3 c 1.2,-1.8 3.35,-4.55 4.75,-6.1 l 2.6,-2.85 3.85,-2.55 3.9,-2.55 3.75,-1.45 3.75,-1.45 4.7,-0.55 4.7,-0.6 2.3,0.35 c 1.25,0.2 3.15,0.65 4.2,1.1 l 1.9,0.75 0.95,1.9 c 0.55,1.05 1.65,3.75 2.5,6 l 1.5,4.15 v 10.3 10.3 l 0.8,2.35 0.8,2.3 2,2.3 2,2.3 4.6,2.65 c 2.5,1.45 6.15,3.5 8.15,4.5 l 3.6,1.9 0.95,2.05 c 0.55,1.15 1.25,3 1.55,4.1 l 0.6,2 0.3,7.25 0.3,7.25 -0.4,3.45 -0.35,3.45 -2.3,2.45 -2.3,2.5 -4.85,2.95 -4.85,2.95 -3.3,3.05 -3.35,3.05 -0.75,1.45 -0.75,1.45 h -1.6 -1.6 z"
           id="path35"
           style="fill:#ffffff" />
        <path
           d="m 712.1,511.5 -2.05,-1.45 -1.35,-2.4 c -0.75,-1.3 -2.1,-3.2 -3,-4.15 l -1.6,-1.75 -0.55,-2 -0.6,-2 -0.3,-7.6 -0.3,-7.6 -1.25,-0.3 c -0.65,-0.15 -2.05,-0.85 -3,-1.5 l -1.8,-1.25 -1.4,-2.05 -1.4,-2.1 -0.5,-1.8 -0.5,-1.8 v -3.3 -3.3 l 0.7,-2.3 0.7,-2.3 1.05,-1.5 1.1,-1.55 2.3,-1.35 2.35,-1.35 4.3,-0.2 4.3,-0.2 2.6,1.1 2.65,1.15 1.95,2.25 2,2.25 v 0.65 0.7 h 0.65 c 0.3,0 4.3,-0.5 8.8,-1.1 l 8.2,-1.1 0.6,-1.5 0.65,-1.55 1.6,-1.5 1.55,-1.5 4.1,-0.15 4.1,-0.15 2.2,1.15 2.25,1.15 1,1.4 1.05,1.4 0.2,4 0.15,3.95 -0.3,1.25 -0.3,1.25 -1.6,1.8 -1.65,1.85 -1.6,0.65 -1.6,0.7 h -3.4 -3.4 l -1.7,-1.05 c -0.95,-0.55 -2.1,-1.5 -2.55,-2.1 l -0.85,-1.05 -4.7,0.65 c -2.6,0.35 -6.25,0.75 -8.1,0.9 l -3.4,0.25 -1.4,3.1 -1.4,3.05 -1.45,1.25 c -0.85,0.7 -1.95,1.6 -2.55,2 l -1,0.75 0.4,4.65 0.45,4.6 1.25,3.1 1.25,3.1 2.6,3.95 2.6,3.95 0.2,2.95 0.2,2.95 -0.6,0.75 -0.6,0.75 h -3.15 -3.1 z"
           id="path36"
           style="fill:#ffffff" />
        <path
           d="m 695.4,710.5 -3.85,-0.95 -3.25,-1.5 -3.3,-1.5 -2.85,-2.2 c -5.55,-4.3 -8.9,-8.65 -11.7,-15.2 l -1.7,-3.9 -0.25,-55 C 668.35,600 668.35,574.4 668.45,573.4 l 0.15,-1.9 h 0.7 0.7 v 0.65 c 0,0.35 0.3,1.05 0.65,1.5 l 0.6,0.85 3.15,-3 3.15,-3.05 1.25,-0.45 1.25,-0.5 h 2.75 2.75 l 4,1.55 c 4.55,1.75 9.6,4.45 11.4,6.1 l 1.15,1.1 -0.3,2.35 -0.25,2.4 0.55,3.1 0.55,3.1 1.3,1.35 1.3,1.3 1.9,0.35 1.9,0.35 1.65,-1 c 0.9,-0.6 1.8,-1.05 2,-1.05 0.15,0 2.1,1.6 4.3,3.55 l 4.05,3.55 3.75,4.25 3.7,4.3 2.55,4.2 2.55,4.15 -1.3,2.6 -1.3,2.6 v 2.4 2.45 l 1,1.9 0.95,1.95 1.9,1.45 c 1.05,0.85 2.65,1.9 3.55,2.35 l 1.7,0.85 3.4,0.3 3.4,0.3 1.3,-0.35 1.35,-0.35 2.05,-1.85 2.05,-1.85 0.7,-1.6 L 755,624 h 9.75 9.75 l 0.8,1.3 0.85,1.25 1.4,0.75 1.4,0.7 h 2.1 2.1 l 1.6,-1 1.65,-1.05 0.8,-2.3 c 0.45,-1.3 0.8,-2.95 0.8,-3.75 v -1.45 l -0.7,-1.7 -0.7,-1.7 -2.05,-1 -2,-1.05 H 781 779.45 l -1.4,0.7 -1.4,0.75 -0.85,1.25 -0.8,1.3 h -10.2 -10.2 l -0.5,-1.45 -0.5,-1.45 -1.85,-2 -1.8,-2.05 -2.3,-1.1 -2.25,-1.1 -2.95,0.35 -3,0.3 -2.45,-3.8 -2.4,-3.85 -3.65,-4.15 -3.65,-4.2 -4.85,-4.3 -4.85,-4.25 -0.35,-2.1 -0.35,-2.1 -1.15,-2.6 -1.2,-2.65 0.85,-0.45 c 0.45,-0.25 2.85,-1.25 5.3,-2.3 l 4.5,-1.85 14.5,0.3 c 8,0.15 15.95,0.4 17.6,0.6 l 3.1,0.3 1.55,-0.8 1.55,-0.8 0.65,-1.4 c 0.4,-0.75 0.85,-2 1.05,-2.75 l 0.35,-1.45 3.1,-3.55 c 1.7,-2 5.1,-6 7.55,-8.95 l 4.45,-5.35 1.45,0.75 1.45,0.75 2.4,0.3 2.4,0.25 2.5,-0.8 2.45,-0.8 2.1,-2.15 2.15,-2.15 0.95,-2.6 1,-2.6 v -1.4 c 0,-0.8 -0.35,-2.55 -0.75,-3.95 l -0.75,-2.5 -2,-2.3 -2,-2.25 -2.15,-1.05 -2.15,-1.05 h -2.65 -2.7 l -2,0.6 -2.05,0.6 -2.25,2.2 -2.25,2.15 -4.3,-2 c -2.35,-1.05 -6.3,-2.75 -8.8,-3.7 -2.5,-0.95 -5.75,-2.35 -7.25,-3.15 -1.5,-0.75 -3.35,-1.5 -4.2,-1.7 l -1.5,-0.3 -0.35,-2.85 -0.35,-2.8 -0.85,-1.65 c -0.45,-0.9 -1.25,-2.25 -1.8,-3.05 l -1,-1.4 -2.55,-1.3 -2.6,-1.35 h -2.5 -2.5 l -1.95,0.65 -1.95,0.65 -1.9,1.75 c -1.05,0.95 -2.45,2.55 -3.05,3.55 l -1.15,1.85 v 4 4 l 1.1,2 c 0.55,1.1 1.7,2.65 2.45,3.45 l 1.45,1.45 2.2,0.95 c 1.25,0.5 3.15,1.05 4.3,1.25 l 2.1,0.25 2.45,-1.05 2.45,-1.1 1.8,-1.75 1.85,-1.8 1.15,0.35 c 0.65,0.2 4.25,1.8 7.95,3.5 3.7,1.7 9.15,4.05 12.15,5.25 l 5.35,2.1 v 1.7 1.65 l 0.8,2.3 0.75,2.3 -1.9,2.2 c -1.05,1.2 -4.15,4.8 -6.9,8 l -5,5.85 -3.5,1.7 c -1.9,0.9 -4.3,2.15 -5.25,2.7 l -1.75,1 H 739.4 727.55 l -1.3,-0.5 -1.25,-0.5 -5.15,2.05 c -2.8,1.1 -5.3,2.2 -5.6,2.4 -0.25,0.25 -2.05,1 -4,1.75 l -3.5,1.3 -7,-3.5 -7,-3.55 -4.9,-1.2 -4.9,-1.2 -3.2,-2.8 c -1.8,-1.55 -3.7,-3.45 -4.25,-4.25 l -1,-1.45 -1.7,-1 c -2.05,-1.3 -2.2,-1.3 -2.4,-0.05 l -0.15,0.95 -0.75,-0.45 -0.75,-0.45 -0.15,-61.5 -0.15,-61.55 4.05,-4.2 4,-4.15 3.65,-1.85 3.6,-1.85 5,-1 5,-1.05 6.25,0.25 6.25,0.25 3.75,1.1 3.75,1.05 3.35,1.7 3.35,1.65 2.9,2.25 c 3.25,2.5 7.8,7.2 9.65,9.9 l 1.2,1.85 6.75,-0.25 6.8,-0.25 4.5,1.05 4.5,1.1 4,1.95 4,1.9 3.55,3 3.5,3 2.85,3.75 2.9,3.7 1.65,3.95 c 1.8,4.25 2.6,7.3 3.1,11.85 l 0.3,2.9 0.95,0.45 0.9,0.5 h 2.05 2.05 l 3.1,1.05 c 1.7,0.55 4.85,1.95 7,3.05 l 3.9,2.05 3.65,3.4 3.65,3.4 2.8,4.15 2.75,4.15 1.25,3 c 0.65,1.65 1.6,4.35 2.1,6 l 0.85,3 0.1,6.25 0.05,6.25 -0.35,1.75 -0.35,1.75 2.45,1.85 2.45,1.9 2.8,3.35 2.75,3.35 2.2,4.55 2.25,4.5 1.1,5.25 1.05,5.25 -0.25,7 -0.2,7 -1.3,4 -1.3,4 -1.8,3 -1.8,3 -2.1,2.15 c -1.15,1.2 -2.7,2.5 -3.4,2.95 l -1.3,0.8 1.7,4.25 1.75,4.25 0.7,3.8 0.65,3.8 v 5.5 5.5 l -0.7,3.9 -0.65,3.85 -1.4,3.65 c -0.75,1.95 -2.15,5.05 -3.1,6.85 l -1.75,3.25 -4.55,4.5 -4.55,4.5 -3.75,1.9 -3.75,1.85 -3,0.75 c -1.6,0.4 -3.85,0.75 -5,0.8 -1.1,0 -2.45,0.2 -2.95,0.4 l -0.95,0.35 0.1,4 0.1,3.95 -0.55,3.65 -0.5,3.65 -1.8,4.35 -1.8,4.35 -2.15,3 c -1.15,1.65 -3.15,4.15 -4.4,5.55 l -2.3,2.55 -3.75,2.6 -3.75,2.55 -3.4,1.45 -3.4,1.45 -4,0.85 -4.05,0.8 -4.7,0.1 -4.75,0.1 -3.85,-0.4 -3.8,-0.4 -1.65,2.9 -1.65,2.9 -3,3 -3.05,3.05 -4,2.05 c -2.2,1.15 -5.25,2.45 -6.75,2.9 l -2.75,0.85 -8.25,0.2 -8.25,0.2 z m 15.85,-35.15 1.95,-1.1 1.85,-2.45 1.85,-2.45 0.65,-2.25 0.6,-2.25 -0.6,-2.05 c -0.3,-1.15 -0.7,-2.4 -0.85,-2.8 l -0.25,-0.8 4.3,-3.4 c 2.4,-1.85 5.7,-4.25 7.4,-5.35 l 3,-1.95 1.95,-0.5 1.9,-0.55 1.85,1.4 1.8,1.4 h 3.15 3.15 l 1.55,-1.5 c 0.9,-0.8 1.95,-2.15 2.35,-2.95 l 0.75,-1.45 -0.3,-2 c -0.2,-1.05 -0.65,-2.6 -1.05,-3.4 l -0.75,-1.45 -1.6,-0.8 -1.6,-0.85 -4.95,0.35 -4.9,0.3 -1.6,0.7 -1.65,0.65 -0.9,2 -0.9,2.05 -3.35,1.85 c -1.9,1 -5.15,3.2 -7.35,4.8 -2.15,1.65 -4.65,3.45 -5.5,4 l -1.55,0.95 -1.8,-0.75 -1.8,-0.75 H 705 701.95 l -1.85,0.95 c -2.2,1.1 -3.65,2.65 -4.85,5.05 l -0.9,1.75 -0.25,3.55 -0.2,3.55 0.95,2.2 c 0.55,1.2 1.6,2.95 2.4,3.85 l 1.35,1.65 1.6,0.8 c 0.85,0.45 2.25,1 3.05,1.2 l 1.5,0.4 2.25,-0.25 2.25,-0.3 z m 8.25,-164.6 0.6,-0.75 -0.3,-1.6 -0.3,-1.6 -2.5,-3.8 -2.5,-3.8 -1.25,-3.05 -1.25,-3.1 -0.55,-6.15 -0.55,-6.1 1.15,-0.8 c 0.65,-0.4 1.8,-1.3 2.65,-2 l 1.45,-1.25 1.4,-3.05 1.4,-3.05 3.65,-0.3 c 2,-0.15 6,-0.65 8.9,-1.05 2.9,-0.45 5.6,-0.8 6.05,-0.8 h 0.8 l 0.6,1.2 0.65,1.15 1.9,1.1 1.9,1.05 h 1.8 1.85 l 1.6,-0.7 1.6,-0.65 1.65,-1.85 1.6,-1.8 0.3,-1.3 0.3,-1.25 -0.2,-2.5 -0.25,-2.5 -1,-1.35 -0.95,-1.35 -2.25,-1.15 -2.2,-1.15 -2.65,0.2 -2.6,0.2 -1.55,1.45 -1.55,1.45 -0.6,1.5 -0.65,1.55 -9.85,1.35 -9.8,1.4 -0.5,-0.3 c -0.3,-0.15 -0.5,-0.6 -0.5,-0.95 v -0.65 l -2,-2.25 -1.95,-2.25 -2.65,-1.15 -2.6,-1.1 -2.9,0.25 -2.9,0.25 -2.2,1.3 -2.25,1.3 -1.1,1.55 -1.05,1.5 -0.7,2.3 -0.7,2.3 v 1.8 c 0,1 0.25,2.6 0.5,3.6 l 0.5,1.8 1.4,2.1 1.4,2.05 1.8,1.25 c 0.95,0.65 2.35,1.35 3,1.5 l 1.25,0.3 0.3,7.6 0.3,7.6 0.6,2 0.55,2 1.6,1.75 c 0.9,0.95 2.25,2.85 3,4.15 l 1.35,2.4 2.05,1.45 2.05,1.5 h 1.6 1.65 z"
           id="path37"
           style="fill:#f6841b" />
        <path
           d="m 262.9,699.7 c -0.8,-0.4 -1.45,-0.8 -1.5,-0.85 -0.1,-0.05 -0.25,-18.9 -0.4,-41.85 l -0.25,-41.75 -5.25,-0.35 -5.25,-0.3 -4.5,-1.35 c -2.45,-0.7 -6,-1.95 -7.8,-2.7 l -3.3,-1.4 -4.45,-2.9 -4.45,-2.9 -3.55,-3.55 -3.5,-3.55 -2.3,-3.25 c -1.25,-1.8 -3.2,-5.05 -4.3,-7.25 l -2,-4 -1.05,-3.5 c -0.55,-1.9 -1.35,-5.15 -1.75,-7.1 l -0.8,-3.65 0.25,-99.35 0.25,-99.4 0.3,-2.75 0.3,-2.75 1.5,-4.75 1.5,-4.75 2.05,-3.95 c 2.5,-4.8 5.25,-8.6 9.55,-13.2 l 3.3,-3.5 3.65,-2.45 c 1.95,-1.4 4.85,-3.25 6.4,-4.1 l 2.8,-1.55 4.3,-1.45 c 2.35,-0.8 5.9,-1.75 7.9,-2.15 l 3.6,-0.65 0.25,-0.85 0.2,-0.9 h 153.9 153.85 l 4.3,0.75 c 8.95,1.55 16.35,4.55 23.4,9.5 l 3.95,2.8 2.85,3.25 c 7.1,8.05 11.25,16.15 13.4,26.2 l 0.7,3.25 0.1,24.65 c 0.05,13.55 0,24.7 -0.1,24.75 -0.1,0.05 -1.1,0.55 -2.2,1.1 l -1.95,1 -5.3,5.25 -5.25,5.25 -5.5,0.05 -5.5,0.05 -3.85,0.85 -3.9,0.85 -4.3,1.8 -4.25,1.8 -3.65,2.35 -3.7,2.4 -2.85,2.85 c -3.6,3.6 -8.4,10.1 -10.35,14 -1.85,3.6 -3.9,9.45 -3.9,11.05 v 1.15 l -2.1,0.55 c -4.25,1.1 -7.2,2.15 -10.45,3.8 l -3.35,1.65 -3.75,3.05 c -8.35,6.7 -14.8,15.75 -17.75,25 l -1.05,3.25 -0.55,3.9 -0.55,3.9 0.35,4.5 0.35,4.5 -3.25,3.35 -3.25,3.35 -2.35,3.65 -2.35,3.6 -1.5,3.55 c -1.9,4.5 -3.3,9.9 -3.95,15.4 l -0.55,4.3 0.75,5.55 0.75,5.6 1.65,4.4 1.65,4.45 1.9,2.8 c 1,1.55 2.65,3.6 3.65,4.65 l 1.8,1.85 -0.25,1.85 c -0.1,1 -0.95,4.1 -1.85,6.85 l -1.65,5 -0.2,7.9 -0.25,7.85 h -68.1 l -68.05,0.05 -8.5,7.95 -8.5,8 h -1.4 -1.4 l -8,7.65 c -4.45,4.15 -9.65,9.05 -11.65,10.85 -4.95,4.45 -35.2,32.5 -45.4,42.1 l -8.35,7.9 h -1.4 l -1.4,-0.05 z m 98,-154.05 0.1,-8.65 h -8.75 -8.75 v 8.4 c 0,4.65 0.1,8.55 0.25,8.65 0.1,0.15 4,0.25 8.6,0.25 l 8.4,-0.05 z m 43.6,0 V 537 h -8.5 -8.5 v 8.65 8.65 h 8.5 l 8.5,-0.05 z m 44.4,0 0.1,-8.55 -6.35,-0.15 c -3.55,-0.1 -7.5,-0.1 -8.9,0.05 l -2.5,0.25 -0.15,7.95 -0.15,7.9 0.6,0.75 0.6,0.7 8.3,-0.15 8.3,-0.2 z m 13.65,-24.55 1.45,-1.35 0.1,-61.65 0.15,-61.7 -1.65,-1.45 -1.6,-1.45 H 396.05 331.1 l -1.55,1.55 -1.55,1.55 v 61.5 61.5 l 1.5,1.45 1.45,1.5 65.05,-0.05 65.1,-0.1 z M 311.5,494 v -8.5 H 302.75 294 v 8.5 8.5 h 8.75 8.75 z m 185.6,2.7 c 0.1,-3.25 0.1,-7.05 0,-8.5 l -0.2,-2.7 h -8.4 -8.4 l -0.3,0.8 -0.3,0.8 v 7.35 7.4 l 0.35,0.3 0.3,0.35 h 8.35 8.35 z M 497,454.05 v -8.45 l -6.85,-0.2 -6.9,-0.2 -1.75,0.3 -1.75,0.25 -0.15,7.75 c -0.05,4.25 0,8 0.1,8.35 l 0.25,0.65 h 8.55 8.5 z M 311.5,453.8 v -8.15 l -1.85,-0.35 c -1.05,-0.15 -5,-0.3 -8.75,-0.3 H 294 v 8.5 8.5 h 8.75 8.75 z m 0,-39.05 V 406 H 302.75 294 v 8.75 8.75 h 8.75 8.75 z m 185.4,-0.1 0.1,-8.65 h -8.5 -8.5 l -0.1,6.4 c -0.15,8.15 -0.1,9.35 0.25,10.3 l 0.35,0.8 8.1,-0.1 8.15,-0.15 z m -136,-44.55 0.1,-8.6 -8.6,0.1 -8.65,0.15 -0.15,8 c -0.05,4.35 -0.05,8.2 0.05,8.5 l 0.2,0.5 h 8.45 8.45 z m 43.7,6.4 c 0.1,-1.25 0.1,-5.1 0,-8.6 l -0.2,-6.4 h -8.45 -8.45 v 8.4 c 0,4.65 0.1,8.55 0.2,8.65 0.1,0.1 3.95,0.2 8.45,0.2 h 8.25 z m 44.3,-6.35 -0.15,-8.4 -8.6,-0.15 -8.65,-0.1 v 8.5 8.5 h 8.75 8.75 z"
           id="path38"
           style="fill:#f6841b" />
        <path
           d="m 345.35,494.7 c -0.2,-0.2 -0.35,-1 -0.35,-1.8 v -1.5 l 2.55,-7.05 c 1.4,-3.9 3.95,-10.9 5.7,-15.6 1.75,-4.65 5,-13.45 7.25,-19.5 3.8,-10.3 4.7,-12.65 8.45,-22.25 l 1.45,-3.75 9.8,-0.15 9.8,-0.1 0.5,1.1 c 2,4.7 17.25,44.3 20,51.9 1.05,2.9 2.85,7.6 3.95,10.45 l 2.1,5.2 -0.15,1.55 -0.15,1.55 h -8.95 -8.95 l -2.3,-6 c -1.25,-3.3 -2.5,-6.3 -2.7,-6.6 l -0.4,-0.65 H 380.2 367.45 l -0.2,0.65 c -0.1,0.3 -1.15,3.3 -2.35,6.6 l -2.15,6 -8.55,0.15 -8.5,0.1 z m 42.35,-29.35 c -0.15,-0.6 -1.5,-4.15 -2.95,-7.85 -1.45,-3.7 -3.05,-8.05 -3.55,-9.65 l -0.9,-2.85 -2.45,6.6 c -3.1,8.55 -5.35,14.8 -5.35,15 0,0.1 3.5,0.1 7.8,0 l 7.75,-0.15 z"
           id="path39"
           style="fill:#f6841b" />
        <path
           d="m 420.5,459 v -36 h 9 9 l 0.1,33.25 c 0.05,18.3 0.1,34.45 0.15,35.9 v 2.6 l -9.1,0.15 -9.15,0.1 z"
           id="path40"
           style="fill:#f6841b" />
        <path
           d="m 619.5,721.15 c -0.95,-0.1 -3.65,-0.75 -6,-1.45 l -4.25,-1.3 -3.75,-1.95 c -2.05,-1.05 -5.2,-3.05 -7,-4.4 l -3.3,-2.45 -3.05,-3.45 -3.05,-3.45 -4.3,0.45 -4.35,0.5 -5.4,-0.8 -5.45,-0.8 -4.55,-1.7 -4.55,-1.7 -4.05,-2.45 -4.1,-2.45 -4,-3.75 -4,-3.75 -2.85,-3.55 -2.8,-3.5 -2.3,-4.5 -2.3,-4.45 -1.25,-4.1 c -0.75,-2.2 -1.45,-5.2 -1.65,-6.65 l -0.35,-2.6 -1.05,-0.4 c -0.6,-0.2 -2.35,-0.75 -3.9,-1.2 l -2.85,-0.85 -3.75,-2.1 -3.8,-2.1 -3.45,-2.9 -3.5,-2.95 -3.1,-3.95 c -1.75,-2.2 -3.75,-5 -4.45,-6.25 l -1.35,-2.25 H 420.35 341 v -0.7 c 0,-0.4 0.15,-0.75 0.4,-0.75 0.2,0 4.2,-3.6 8.85,-8 l 8.5,-7.95 68.05,-0.05 h 68.05 l 0.05,-5.95 0.05,-5.95 0.5,-2.95 c 0.3,-1.65 1.2,-4.95 2,-7.4 l 1.45,-4.45 -1.7,-1.7 c -0.95,-1 -2.55,-3 -3.55,-4.55 l -1.9,-2.8 -1.65,-4.45 -1.65,-4.4 -0.75,-5.6 -0.8,-5.55 0.35,-4.5 0.3,-4.5 0.95,-4.35 0.95,-4.35 1.55,-3.9 1.55,-3.9 2.35,-3.75 2.3,-3.7 3.35,-3.55 3.35,-3.5 -0.25,-4.3 -0.3,-4.35 0.6,-4.15 0.6,-4.2 1.05,-3.25 c 2.95,-9.25 9.4,-18.3 17.75,-25 l 3.75,-3.05 3.35,-1.65 c 3.25,-1.65 6.2,-2.7 10.45,-3.8 l 2.1,-0.55 v -1.15 c 0,-1.6 2.05,-7.45 3.9,-11.05 1.95,-3.9 6.75,-10.4 10.35,-14 l 2.85,-2.85 3.7,-2.4 3.65,-2.35 4.25,-1.8 4.3,-1.8 3.9,-0.85 3.85,-0.85 5.55,-0.15 5.55,-0.15 5.2,-5.15 5.25,-5.15 1.95,-1 c 1.1,-0.55 2.05,-1.05 2.15,-1.05 0.05,-0.05 0.15,-10.45 0.1,-23.15 V 366.5 l -0.75,-3.4 c -2.15,-10.15 -6.25,-18.2 -13.4,-26.3 l -2.85,-3.25 -3.95,-2.8 c -7.05,-4.95 -14.45,-7.95 -23.4,-9.5 l -4.3,-0.75 H 407.75 254.6 l -0.3,-1.65 -0.3,-1.6 0.5,-4.15 0.55,-4.2 1.2,-3.8 1.2,-3.85 2.25,-3.9 2.25,-3.9 2.85,-3.5 c 3.15,-3.85 5.2,-5.65 10.35,-9.1 l 3.4,-2.25 4.4,-1.75 c 2.4,-1 6.05,-2.15 8.05,-2.65 l 3.75,-0.9 163.35,-0.3 163.3,-0.25 3.7,-3.5 c 2,-1.95 7.15,-6.65 11.4,-10.55 4.25,-3.85 10.3,-9.35 13.45,-12.25 7,-6.35 23.75,-21.45 28.9,-26.05 l 3.8,-3.4 h 2.1 2.1 l 1.05,1.15 1.1,1.15 v 93.4 93.4 l 0.9,-0.35 0.85,-0.35 6.25,-0.25 6.25,-0.25 4.9,0.8 c 5.75,1 7.2,1.5 13,4.35 l 4.4,2.15 3.85,3.1 3.9,3.1 2.9,3.3 2.9,3.3 h 4.8 4.85 l 4.65,0.95 4.65,1 3.5,1.3 3.45,1.35 3.9,2.5 3.85,2.55 3.65,3.55 c 2.05,1.95 4.7,4.9 5.95,6.55 l 2.25,3 2.1,4.25 c 2.05,4.1 4.1,9.3 4.4,11.15 l 0.15,0.9 4.8,1.9 c 6,2.35 9.6,4.4 14.25,8.15 l 3.65,2.95 2.75,3.1 2.7,3.1 2.25,3.8 c 3.6,6.05 5.6,11.45 6.8,18.15 l 0.55,3 v 4.95 5 l 2.4,2.75 c 4,4.75 6,7.6 8.35,12.15 2.65,5.15 3.5,7.4 4.55,12.2 l 0.8,3.5 0.25,6.5 0.25,6.5 -0.55,3.55 c -1.3,8.35 -4.85,15.85 -10.15,21.5 l -1.95,2 0.8,1.9 c 0.45,1.05 1.25,4.05 1.85,6.7 l 1,4.85 -0.25,7.75 -0.25,7.75 -1.05,3.9 c -0.6,2.15 -1.95,5.85 -2.95,8.3 l -1.9,4.4 -2.3,3.45 -2.3,3.45 -4.05,4 -4.05,4 -4.8,2.8 -4.75,2.8 -3.35,1.15 -3.4,1.15 -0.9,4.8 -0.85,4.8 -1.6,4.25 -1.65,4.3 -2.4,3.65 -2.45,3.65 -4.15,4.4 -4.2,4.35 -3.6,2.5 c -6.2,4.3 -13.1,7.2 -20.55,8.65 l -2.85,0.55 -6,0.05 -5.95,0.05 -1.85,2.3 c -1.05,1.25 -3.3,3.55 -5.05,5.05 l -3.15,2.75 -3.5,1.95 -3.55,1.9 -4.6,1.65 -4.65,1.65 -4.15,0.6 -4.15,0.65 -6.1,-0.3 -6.05,-0.25 -4.4,-1.3 -4.4,-1.3 -3.6,-1.8 c -2,-1 -4.7,-2.55 -6.1,-3.45 l -2.5,-1.6 -3.05,-2.95 c -1.65,-1.6 -3.85,-3.95 -4.85,-5.15 l -1.85,-2.2 -1.1,1.45 c -0.6,0.8 -2.45,2.85 -4.05,4.55 l -2.95,3.1 -3.6,2.45 -3.55,2.45 -3.5,1.5 c -4.95,2.15 -7.9,3.05 -12.75,3.9 l -4.25,0.75 -4.75,-0.1 c -2.6,0 -5.55,-0.15 -6.5,-0.25 z M 633,709.3 c 5.75,-1.2 7.65,-1.85 11.55,-3.85 l 3.8,-2 3.3,-2.7 3.3,-2.75 2,-2.65 2.05,-2.65 1.65,-3.75 c 0.95,-2.05 1.95,-4.7 2.25,-5.95 l 0.55,-2.25 0.1,-48.5 0.15,-48.5 -1.15,-2.85 -1.1,-2.9 -2.25,-3 c -2.75,-3.6 -5.35,-5.9 -8.5,-7.5 l -2.4,-1.15 -3,-0.65 -3.05,-0.65 h -3 C 635.4,565 629.9,565.8 626.9,566.8 l -2.4,0.8 -2.95,2.15 -2.95,2.15 -2.7,3.45 c -1.45,1.85 -3.5,4.7 -4.55,6.3 l -1.85,2.85 -0.9,0.05 c -1.6,0.1 -2.35,-0.15 -3.45,-1.2 l -1.15,-1 v -1.2 -1.15 l 1.7,-1.9 c 0.95,-1.05 3.55,-4.15 5.75,-6.9 l 3.95,-4.95 -1.8,-0.45 -1.8,-0.45 -5.55,0.55 -5.5,0.6 -4,1.3 -4,1.25 -8.85,0.45 -8.85,0.45 -1.5,0.75 c -2.25,1.2 -4,3.15 -8.2,9.45 l -3.9,5.8 -1,0.3 -1,0.35 -0.8,-0.65 c -0.4,-0.35 -0.95,-1.2 -1.2,-1.8 l -0.45,-1.2 1.05,-2.2 1.05,-2.2 3.7,-4.35 c 2.05,-2.35 3.7,-4.55 3.7,-4.85 v -0.5 l -3.4,0.3 -3.4,0.35 -2.95,1 -2.9,1 -1.8,1.35 c -1,0.75 -3.5,3 -5.55,4.9 -2.05,1.95 -5.1,4.6 -6.75,5.85 l -3,2.35 -2.4,1 -2.45,1.05 h -9.85 -9.85 l -1,0.7 -1,0.75 -1.6,3.4 -1.55,3.4 -0.85,4.25 -0.85,4.25 0.3,5.25 0.3,5.25 0.8,2.85 c 0.95,3.55 3,8.25 5.2,12.05 l 1.65,2.9 3.85,3.9 3.8,3.9 2.2,1.4 c 1.2,0.75 3.6,1.9 5.35,2.55 l 3.2,1.2 h 3.6 3.6 l 3.3,-1.95 3.3,-1.95 2.25,-2.45 2.25,-2.4 1.45,-3.7 1.4,-3.7 1.65,-1.85 1.7,-1.85 3.05,-1.65 3.05,-1.6 2.85,-0.7 c 1.6,-0.35 4.95,-0.8 7.5,-1 l 4.6,-0.35 1.2,1.15 1.25,1.15 v 1.55 c 0,1.35 1.15,6.35 3.05,13.45 l 0.5,1.85 h 5.1 5.1 l 1.9,0.55 1.9,0.5 1.9,1.7 1.85,1.7 1.85,3.65 c 1.05,2 2.45,4.3 3.15,5.1 l 1.25,1.45 2.35,-0.3 c 1.3,-0.15 3.8,-0.75 5.6,-1.3 l 3.25,-1 2.4,-1.5 2.35,-1.55 1,-1.6 1,-1.65 2.55,-7.7 2.6,-7.7 -0.3,-4.9 -0.25,-4.95 -2.35,-5 -2.35,-5.05 0.2,-2.75 0.25,-2.75 1.45,-2.05 c 0.8,-1.15 2.05,-2.5 2.85,-3.1 l 1.35,-1 h 1.75 1.8 l 1.35,1.35 1.35,1.4 -2.15,1.75 -2.15,1.8 -0.7,1.45 -0.75,1.4 v 1.15 1.15 l 1.75,3.65 1.8,3.65 0.45,2.55 0.5,2.55 v 4.85 4.9 l -1.95,6.5 c -2.35,7.8 -3.45,10.45 -5.8,13.6 l -1.75,2.4 -2.15,1 c -1.15,0.5 -3.55,1.5 -5.35,2.1 -1.8,0.6 -4.5,1.75 -6.05,2.55 l -2.8,1.4 -1.3,1.5 -1.25,1.5 -0.85,2.4 c -0.5,1.3 -1.75,4.6 -2.8,7.3 l -1.95,4.9 -0.7,4.5 -0.75,4.5 -1.3,2.3 -1.35,2.3 0.65,2.05 0.65,2.05 3.55,3.55 3.5,3.55 3.75,1.85 3.75,1.8 4.75,0.95 4.75,0.95 3,0.05 3,0.05 z m 84,-0.55 c 1.5,-0.45 4.55,-1.75 6.75,-2.9 l 4,-2.05 3,-3.05 3.05,-3 1.75,-3 1.75,-3 1.75,0.05 c 0.95,0 3.6,0.3 5.95,0.6 l 4.25,0.5 4.25,-0.45 c 2.35,-0.25 5.6,-0.85 7.2,-1.25 l 3,-0.8 3.5,-1.65 3.55,-1.7 3.5,-2.65 3.5,-2.65 3.4,-4.25 3.4,-4.25 1.45,-3.1 c 0.8,-1.7 1.95,-4.5 2.55,-6.25 l 1.1,-3.15 0.05,-6.45 0.05,-6.45 1,-0.4 c 0.55,-0.2 1.9,-0.4 3,-0.4 1.15,-0.05 3.4,-0.4 5,-0.8 l 3,-0.75 3.75,-1.85 3.75,-1.9 4.55,-4.5 4.55,-4.5 1.75,-3.25 c 0.95,-1.8 2.35,-4.9 3.1,-6.85 l 1.4,-3.65 0.65,-3.85 0.7,-3.9 v -4 -4 l -0.65,-3.8 -0.7,-3.8 -1.85,-4.45 c -1,-2.45 -1.95,-4.95 -2.1,-5.5 l -0.25,-1.05 1.7,-1.05 c 0.9,-0.55 2.6,-2 3.75,-3.2 l 2.1,-2.15 1.8,-3 1.8,-3 1.25,-4 1.3,-4 0.25,-5.5 0.25,-5.5 -1.05,-5.25 -1.1,-5.25 -2.25,-4.5 -2.2,-4.55 -2.8,-3.4 -2.75,-3.35 -2.75,-2.1 -2.75,-2.1 0.2,-1.25 c 0.15,-0.7 0.5,-2.6 0.8,-4.25 l 0.6,-3 -0.35,-3.75 -0.3,-3.75 -0.75,-2.75 c -0.45,-1.5 -1.35,-4.1 -2,-5.75 l -1.25,-3 -2.75,-4.15 -2.8,-4.15 -3.65,-3.4 -3.65,-3.4 -3.9,-2.05 c -2.15,-1.1 -5.3,-2.5 -7,-3.05 L 787.05,474 H 785 782.95 l -0.9,-0.5 -0.95,-0.45 -0.3,-2.9 c -0.5,-4.55 -1.3,-7.6 -3.1,-11.85 l -1.65,-3.95 -2.9,-3.7 -2.85,-3.75 -3.5,-3 -3.55,-3 -4,-1.9 -4,-1.95 -4.25,-1.05 -4.25,-1 -3.5,0.05 c -1.9,0 -4.85,0.2 -6.5,0.4 -1.65,0.25 -3.2,0.3 -3.5,0.2 -0.25,-0.1 -1.05,-1 -1.75,-2.05 -1.85,-2.75 -6.35,-7.4 -9.65,-9.95 l -2.9,-2.25 -3.35,-1.65 -3.35,-1.7 -3.75,-1.05 -3.75,-1.05 -4.75,-0.3 -4.75,-0.25 -5,1.05 -5,1 -3.6,1.85 -3.65,1.85 -4,4.15 -4,4.2 0.2,58.6 c 0.1,32.25 0.25,59.35 0.25,60.15 0.05,0.85 -0.1,7.9 -0.3,15.75 l -0.4,14.25 0.25,52.75 0.25,52.75 1.7,3.9 c 2.8,6.55 6.15,10.9 11.7,15.2 l 2.85,2.2 3.3,1.5 3.25,1.5 3.85,0.95 3.85,1 6.75,-0.2 6.75,-0.2 z m -127.15,-17.3 3.6,-1.1 0.75,-1.9 0.8,-1.95 0.55,-4.9 0.5,-4.85 1.55,-3 c 0.8,-1.65 2.3,-4.4 3.25,-6.15 l 1.75,-3.15 -0.3,-2.6 -0.35,-2.6 -1.95,-4 -1.95,-4 -2.2,-2.5 -2.2,-2.5 -6.3,-0.15 -6.25,-0.2 -1.5,-1.55 -1.5,-1.6 -0.85,-4 c -1,-4.65 -2.2,-7.7 -3.7,-9.2 l -1.05,-1.05 h -2.9 -2.9 l -2.55,0.75 -2.55,0.75 -1.7,1.9 -1.7,1.9 -1.7,4.2 -1.7,4.25 -3.05,3 -3,3 -3,1.55 -3,1.55 -0.15,2.75 -0.15,2.75 0.75,3.7 0.75,3.7 2.75,5.55 2.75,5.55 3.6,3.85 3.6,3.9 2.9,1.95 c 1.6,1.05 4.45,2.7 6.3,3.65 l 3.4,1.7 3,0.8 c 4.5,1.15 4.65,1.2 9.5,1.25 l 4.5,0.05 z m -65.1,-110.2 h 7 l 2.5,-1.45 2.5,-1.5 2.75,-2.55 c 5.8,-5.35 11.9,-9.85 15.1,-11.1 l 2.15,-0.85 9,-0.05 c 4.95,-0.05 12.85,-0.25 17.5,-0.45 l 8.5,-0.4 5.25,-1.15 c 2.9,-0.65 6.65,-1.3 8.3,-1.5 l 3.1,-0.35 -2.15,-4.05 -2.2,-4.1 -1.8,-5 -1.8,-5 -1.6,-1.65 c -2.4,-2.5 -7.05,-5.7 -12.05,-8.3 l -4.5,-2.3 -1.6,-0.3 -1.6,-0.3 -3.4,1 c -1.9,0.55 -5.45,1.7 -7.95,2.6 l -4.5,1.65 -2.35,-0.05 h -2.4 l -3.85,-1.85 -3.9,-1.8 -2.5,-1.9 c -1.35,-1.05 -2.95,-2.15 -3.55,-2.45 l -1.05,-0.55 -2.6,1.25 -2.65,1.2 -1.95,0.3 -1.95,0.35 -2.9,-1.05 c -1.55,-0.6 -4.3,-1.3 -6.1,-1.55 l -3.25,-0.55 h -3.85 -3.85 l -1.3,0.5 -1.3,0.5 -2.55,2.35 -2.55,2.4 L 505,534 c -1,1.5 -2.45,3.9 -3.15,5.3 l -1.3,2.55 -1.05,3.95 -1.05,3.95 -0.3,4.5 -0.3,4.55 0.6,3.45 c 0.7,4.2 2.1,8.05 4.1,11.6 l 1.5,2.65 2.6,2.8 2.55,2.8 4.3,-0.4 4.25,-0.45 z m 112.5,-22.15 10.05,-0.35 3.35,-1.65 3.35,-1.65 2.45,-2.4 2.4,-2.35 1.6,-2.75 1.55,-2.7 0.7,-2.5 0.7,-2.5 0.15,-43 c 0.05,-23.65 0.1,-48.45 0.05,-55.1 l -0.1,-12.1 -3.95,-4.15 -3.95,-4.15 -2.85,-1.7 -2.85,-1.75 -4.05,-1.15 -4.1,-1.2 -5.3,-0.05 h -5.3 l -4.4,1.1 -4.35,1.1 -3.35,1.5 -3.3,1.45 -2.75,2.05 c -1.5,1.1 -3.75,2.95 -4.9,4.1 l -2.2,2.05 -1.2,2.35 -1.2,2.35 v 1.65 1.65 l 1.05,2.75 c 0.55,1.5 1.5,4 2.1,5.5 l 1.05,2.75 -0.1,9.15 -0.15,9.15 0.6,2.05 0.55,2.05 2.6,2.55 2.6,2.55 6.15,3.45 6.2,3.5 1.05,-1.3 c 0.55,-0.75 1.8,-2.25 2.7,-3.35 l 1.65,-2.05 h 1.65 1.65 l 0.9,1 0.9,0.95 -0.9,1.4 c -0.5,0.75 -1.9,2.55 -3.05,4 l -2.15,2.65 0.25,1.65 c 0.15,0.85 0.75,3.95 1.3,6.8 l 1.05,5.2 -0.3,7.05 -0.25,7.05 -0.8,2.25 -0.8,2.25 -1.9,2.5 -1.85,2.45 -2.85,1.6 c -4.2,2.35 -10.25,7 -13.85,10.55 l -3.15,3.2 0.2,2.35 c 0.15,1.3 0.75,3.95 1.3,5.9 l 1.1,3.55 1.95,3.05 2,3.05 2,1.35 c 1.15,0.7 2.75,1.5 3.65,1.75 l 1.65,0.4 3,-0.25 c 1.65,-0.15 7.5,-0.4 13,-0.6 z m -29.5,-29.85 3.55,-3.5 5,-3.1 5,-3.05 2.3,-2.5 2.3,-2.45 0.35,-3.45 0.4,-3.45 -0.35,-5.75 -0.3,-5.75 -0.55,-2 c -0.3,-1.1 -1,-2.95 -1.55,-4.1 l -0.95,-2.05 -3.6,-1.9 c -2,-1 -5.65,-3.05 -8.15,-4.5 l -4.6,-2.65 -2,-2.3 -2,-2.3 -0.8,-2.3 -0.8,-2.35 v -10.3 -10.3 l -1.5,-4.15 c -0.85,-2.25 -1.95,-4.95 -2.5,-6 l -0.95,-1.9 -2.15,-0.9 -2.15,-0.85 -3.25,0.05 c -1.8,0 -4.45,0.25 -5.9,0.5 l -2.65,0.55 -3.4,1.4 -3.4,1.45 -3.6,2.4 -3.6,2.4 -2.55,2.8 c -1.4,1.55 -3.55,4.3 -4.75,6.1 l -2.2,3.3 -1.2,3.45 -1.25,3.45 v 3.75 3.75 l 1.7,1.15 c 0.95,0.65 2.6,2 3.75,3.05 l 2.05,1.9 v 1.25 1.25 l -1.05,1.35 -1,1.3 h -0.8 -0.8 l -3.6,-3.45 -3.55,-3.45 -2.2,-0.35 -2.25,-0.3 -3.65,0.75 -3.65,0.75 -3.55,1.9 -3.55,1.9 -4.1,3.85 -4.1,3.85 -2.65,3.85 -2.65,3.85 -1.4,3.35 -1.4,3.3 -0.8,4.45 c -0.9,5.2 -0.95,7.35 -0.2,10.7 l 0.5,2.45 3.65,-0.25 3.65,-0.3 4.05,0.6 4.05,0.6 3.05,1.25 3.1,1.25 0.95,-0.3 c 0.5,-0.2 1.3,-0.65 1.7,-1.05 l 0.75,-0.75 v -1.3 -1.3 l 0.85,-0.95 0.8,-0.9 h 1.65 1.65 l 2.85,3.25 2.9,3.3 3.45,2.3 3.4,2.35 3.1,0.15 3.1,0.15 6.25,-2.4 6.25,-2.4 -0.1,-0.45 c -0.3,-1.45 -2.85,-7.45 -4.4,-10.4 l -1.8,-3.35 0.55,-1 c 0.25,-0.5 1,-1.3 1.6,-1.7 l 1.1,-0.8 h 1.4 c 0.75,0 1.95,0.25 2.65,0.6 l 1.25,0.55 0.25,1.05 c 0.15,0.6 0.5,2.5 0.8,4.3 l 0.55,3.25 1.5,3.9 1.5,3.85 4.5,2.4 c 2.5,1.3 7,4 10.1,5.95 l 5.55,3.65 0.5,-0.9 c 0.25,-0.45 2.1,-2.45 4,-4.35 z"
           id="path41"
           style="fill:#1b1b19" />
        <path
           d="m 342.3,555.65 -0.3,-0.3 v -9.9 -9.9 l 0.4,-0.15 c 0.2,-0.1 4.8,-0.1 10.25,0 l 9.85,0.2 -0.1,10.05 -0.15,10.1 -9.8,0.1 -9.85,0.1 z"
           id="path42"
           style="fill:#1b1b19" />
        <path
           d="m 385.9,546.05 c -0.1,-5.4 -0.1,-10.05 0,-10.3 l 0.1,-0.5 9.9,0.1 9.85,0.1 0.15,10.15 0.1,10.15 -9.95,0.05 -10,0.05 z"
           id="path43"
           style="fill:#1b1b19" />
        <path
           d="m 430.1,555.4 -0.6,-0.6 v -9.1 -9.1 l 0.3,-0.75 0.25,-0.75 9.85,0.2 c 5.4,0.1 10,0.2 10.25,0.2 h 0.35 l -0.1,10.15 -0.15,10.1 -9.75,0.15 -9.8,0.1 z"
           id="path44"
           style="fill:#1b1b19" />
        <path
           d="m 327.95,522.55 -1.45,-1.45 v -63 -63 l 1.55,-1.55 1.55,-1.55 h 66.5 66.5 l 1.6,1.65 1.6,1.6 -0.15,63 -0.15,63 -1.5,1.35 -1.45,1.35 L 396,524 h -66.55 z m 35.45,-35.3 c 1.2,-3.3 2.25,-6.3 2.35,-6.6 l 0.2,-0.65 h 14.25 14.25 l 0.4,0.65 c 0.2,0.3 1.45,3.3 2.7,6.6 l 2.3,6 6.9,0.15 c 3.85,0.05 7.25,0 7.6,-0.1 l 0.65,-0.25 -1.05,-2.65 c -0.6,-1.45 -2.3,-5.9 -3.8,-9.9 -5.55,-14.75 -19.4,-50.75 -21.15,-54.9 l -0.5,-1.1 -8.3,0.1 -8.3,0.15 -1.45,3.75 c -3.75,9.6 -4.65,11.95 -8.4,22 -2.15,5.9 -5.15,13.9 -6.55,17.75 -1.45,3.85 -4.05,10.95 -5.8,15.75 l -3.15,8.7 0.25,0.4 0.3,0.45 7.05,-0.15 7.1,-0.15 z m 73.8,4.9 c 0,-0.65 -0.05,-16.1 -0.1,-34.4 L 437,424.5 h -7.5 -7.5 v 34.5 34.55 l 7.65,-0.15 7.6,-0.15 z"
           id="path45"
           style="fill:#1b1b19" />
        <path
           d="m 370.45,467.95 -0.55,-0.3 1.75,-4.7 c 0.95,-2.6 2.9,-7.85 4.3,-11.7 1.45,-3.85 2.95,-7.95 3.4,-9.15 l 0.8,-2.15 0.35,0.4 c 0.2,0.2 1.1,2.65 2,5.4 0.9,2.75 2.7,7.7 4,11 1.35,3.3 2.75,7.2 3.15,8.65 l 0.8,2.6 h -0.6 c -0.35,0 -4.7,0.05 -9.75,0.15 l -9.15,0.15 z"
           id="path46"
           style="fill:#1b1b19" />
        <path
           d="m 292.45,498.15 c -0.05,-3.25 0,-7.7 0.05,-9.9 l 0.1,-4 0.3,-0.25 c 0.2,-0.15 4.95,-0.2 10.55,-0.1 l 10.15,0.15 -0.3,1.55 c -0.15,0.85 -0.3,5.3 -0.3,9.95 V 504 H 302.75 292.5 Z"
           id="path47"
           style="fill:#1b1b19" />
        <path
           d="m 478.35,503.65 -0.35,-0.3 v -9.05 -9.05 l 0.45,-0.7 0.45,-0.65 9.65,0.05 9.65,0.1 0.35,0.55 0.35,0.6 -0.1,5.75 c -0.1,3.2 -0.2,7.45 -0.25,9.45 l -0.05,3.6 h -9.9 -9.95 z"
           id="path48"
           style="fill:#1b1b19" />
        <path
           d="m 292.85,463.7 -0.35,-0.35 v -9.95 -9.95 l 10.15,0.15 10.1,0.15 0.15,9.9 0.1,9.85 h -9.2 c -5.05,0 -9.55,0.1 -9.9,0.25 l -0.7,0.3 z"
           id="path49"
           style="fill:#1b1b19" />
        <path
           d="M 478.35,463.65 478,463.35 V 454 444.6 l 0.65,-0.5 0.6,-0.55 9.5,0.25 9.5,0.2 0.15,10 0.1,10 h -9.9 -9.95 z"
           id="path50"
           style="fill:#1b1b19" />
        <path
           d="M 292.5,414.75 V 404.5 h 10.2 10.25 l 0.15,0.4 c 0.1,0.2 0.1,4.8 0,10.25 l -0.2,9.85 h -10.2 -10.2 z"
           id="path51"
           style="fill:#1b1b19" />
        <path
           d="m 478.55,424.1 -0.5,-0.9 0.15,-3.7 c 0.1,-2.05 0.2,-6.3 0.25,-9.35 l 0.05,-5.65 h 10 10 l 0.05,3.65 c 0.05,6.9 -0.15,16.05 -0.35,16.45 l -0.25,0.4 h -9.45 -9.45 z"
           id="path52"
           style="fill:#1b1b19" />
        <path
           d="m 342.2,379.8 c -0.15,-0.35 -0.15,-4.85 -0.1,-10.05 l 0.15,-9.5 10.15,-0.15 10.1,-0.1 -0.1,10.1 -0.15,10.15 -9.9,0.05 -9.95,0.05 z"
           id="path53"
           style="fill:#1b1b19" />
        <path
           d="m 386.2,380.05 c -0.1,-0.1 -0.2,-4.7 -0.2,-10.15 V 360 h 10 10 l 0.05,3.65 c 0.05,1.95 0.15,6.1 0.25,9.1 0.15,3.05 0.1,5.95 0,6.5 l -0.25,1 h -9.8 c -5.4,0 -9.9,-0.1 -10.05,-0.2 z"
           id="path54"
           style="fill:#1b1b19" />
        <path
           d="M 430.85,380.1 430,379.95 v -10 -9.95 l 10.15,0.1 10.1,0.15 v 9.95 9.9 l -9.3,0.1 c -5.1,0 -9.65,0 -10.1,-0.1 z"
           id="path55"
           style="fill:#1b1b19" />
      </g>
    </g>
  </g>
</svg>
